<svg width="321" height="67" viewBox="0 0 321 67" fill="none" xmlns="http://www.w3.org/2000/svg">
<path d="M75.4679 32.8966C75.322 32.8966 75.1842 32.8724 75.0546 32.8241C74.925 32.7758 74.7549 32.6309 74.5441 32.3893C74.3334 32.1478 74.0256 31.7533 73.6204 31.2058C73.2153 30.6422 72.6562 29.8532 71.9432 28.8387C71.4408 28.1141 71.0114 27.5182 70.6548 27.0513C70.3145 26.5844 69.9905 26.2301 69.6825 25.9885C69.3908 25.7308 69.0748 25.5537 68.7345 25.4571C68.4104 25.3444 68.0052 25.2881 67.5191 25.2881C67.357 25.2881 67.1868 25.2961 67.0086 25.3122C66.8304 25.3284 66.644 25.3444 66.4495 25.3605L66.4252 24.9257C67.4299 24.8774 68.2078 24.8533 68.7588 24.8533C69.2773 24.8533 69.6988 24.9016 70.0228 24.9982C70.3631 25.0787 70.6711 25.2478 70.9465 25.5054C71.222 25.747 71.5219 26.1013 71.8459 26.5682C72.1863 27.0191 72.6238 27.6148 73.1586 28.3556C73.8068 29.2573 74.3902 30.0222 74.9088 30.6502C75.4273 31.2782 75.954 31.7613 76.4888 32.0995C77.0398 32.4215 77.6637 32.5906 78.3605 32.6067C78.3929 32.6067 78.4091 32.655 78.4091 32.7516C78.4091 32.8482 78.3929 32.8966 78.3605 32.8966H75.4679ZM63.6541 32.8966C63.6217 32.8966 63.6055 32.8482 63.6055 32.7516C63.6055 32.655 63.6217 32.6067 63.6541 32.6067C64.2699 32.6067 64.7317 32.5664 65.0396 32.4859C65.3637 32.4055 65.5744 32.2444 65.6717 32.0029C65.7851 31.7613 65.8418 31.407 65.8418 30.9401V19.7568C65.8418 19.2899 65.7851 18.9436 65.6717 18.7182C65.5744 18.4766 65.3719 18.3156 65.064 18.2351C64.756 18.1385 64.2942 18.0902 63.6784 18.0902C63.646 18.0902 63.6298 18.0419 63.6298 17.9452C63.6298 17.8486 63.646 17.8003 63.6784 17.8003C64.0673 17.8003 64.4968 17.8165 64.9667 17.8486C65.4529 17.8648 65.9553 17.8728 66.4738 17.8728C67.041 17.8728 67.5596 17.8648 68.0296 17.8486C68.4995 17.8165 68.9209 17.8003 69.2936 17.8003C69.326 17.8003 69.3422 17.8486 69.3422 17.9452C69.3422 18.0419 69.326 18.0902 69.2936 18.0902C68.6778 18.0902 68.216 18.1385 67.908 18.2351C67.6001 18.3317 67.3895 18.5008 67.276 18.7423C67.1788 18.9839 67.1302 19.3382 67.1302 19.8051V30.9401C67.1302 31.407 67.1788 31.7613 67.276 32.0029C67.3732 32.2444 67.5758 32.4055 67.8837 32.4859C68.2078 32.5664 68.6778 32.6067 69.2936 32.6067C69.326 32.6067 69.3422 32.655 69.3422 32.7516C69.3422 32.8482 69.326 32.8966 69.2936 32.8966C68.9046 32.8966 68.4752 32.8885 68.0052 32.8724C67.5515 32.8563 67.041 32.8482 66.4738 32.8482C65.9553 32.8482 65.4529 32.8563 64.9667 32.8724C64.4806 32.8885 64.043 32.8966 63.6541 32.8966ZM69.6582 25.2397L69.2207 25.0224L72.3807 20.6263C73.1423 19.5797 73.5151 18.8953 73.4989 18.5732C73.4826 18.2512 73.0451 18.0902 72.1863 18.0902C72.1539 18.0902 72.1376 18.0419 72.1376 17.9452C72.1376 17.8486 72.1539 17.8003 72.1863 17.8003C72.5752 17.8003 72.9641 17.8165 73.3531 17.8486C73.742 17.8648 74.2605 17.8728 74.9088 17.8728C75.5245 17.8728 76.0026 17.8648 76.343 17.8486C76.6995 17.8165 77.0398 17.8003 77.3639 17.8003C77.4125 17.8003 77.4368 17.8486 77.4368 17.9452C77.4368 18.0419 77.4125 18.0902 77.3639 18.0902C76.7643 18.0902 76.2377 18.1788 75.7839 18.3559C75.3463 18.5169 74.9168 18.7986 74.4955 19.2012C74.0904 19.5877 73.6285 20.1191 73.11 20.7954L69.6582 25.2397ZM87.722 33.1864C86.5552 33.1864 85.4938 32.9852 84.5376 32.5826C83.5978 32.1639 82.7874 31.5922 82.1068 30.8676C81.4424 30.143 80.9239 29.3138 80.5511 28.3798C80.1946 27.4297 80.0163 26.4233 80.0163 25.3605C80.0163 24.0562 80.2676 22.913 80.7698 21.9306C81.2885 20.9483 81.9691 20.1352 82.8117 19.4911C83.6545 18.8309 84.5782 18.3397 85.5829 18.0177C86.5877 17.6957 87.5843 17.5346 88.5728 17.5346C89.7721 17.5346 90.8416 17.752 91.7815 18.1868C92.7377 18.6054 93.5479 19.1771 94.2123 19.9017C94.8768 20.6263 95.3791 21.4476 95.7194 22.3654C96.0759 23.2833 96.2542 24.2253 96.2542 25.1914C96.2542 26.3187 96.0273 27.3653 95.5735 28.3315C95.1199 29.2976 94.4959 30.143 93.7018 30.8676C92.9239 31.5922 92.0165 32.1639 90.9793 32.5826C89.9583 32.9852 88.8727 33.1864 87.722 33.1864ZM88.5971 32.7033C89.7315 32.7033 90.7605 32.4456 91.6842 31.9304C92.6079 31.399 93.3372 30.6261 93.872 29.6116C94.423 28.581 94.6984 27.3331 94.6984 25.8677C94.6984 24.338 94.3987 22.9934 93.799 21.834C93.2156 20.6585 92.3892 19.7406 91.3196 19.0805C90.25 18.4042 88.9942 18.066 87.5518 18.066C85.672 18.066 84.2055 18.6457 83.1521 19.8051C82.0987 20.9645 81.572 22.5425 81.572 24.5393C81.572 25.6665 81.7341 26.7293 82.0582 27.7276C82.3985 28.7099 82.8766 29.5795 83.4924 30.3362C84.1244 31.077 84.8699 31.6567 85.7287 32.0753C86.5877 32.494 87.5438 32.7033 88.5971 32.7033ZM101.326 30.3845L101.569 18.3559L102.103 18.4042L101.885 30.3845C101.868 31.2058 101.998 31.7855 102.274 32.1236C102.565 32.4456 103.116 32.6067 103.927 32.6067C103.959 32.6067 103.975 32.655 103.975 32.7516C103.975 32.8482 103.959 32.8966 103.927 32.8966C103.57 32.8966 103.197 32.8885 102.808 32.8724C102.436 32.8563 102.022 32.8482 101.569 32.8482C101.18 32.8482 100.807 32.8563 100.45 32.8724C100.094 32.8885 99.7536 32.8966 99.4295 32.8966C99.397 32.8966 99.3809 32.8482 99.3809 32.7516C99.3809 32.655 99.397 32.6067 99.4295 32.6067C100.11 32.6067 100.588 32.4456 100.864 32.1236C101.155 31.7855 101.309 31.2058 101.326 30.3845ZM118.025 32.6067C118.074 32.6067 118.099 32.655 118.099 32.7516C118.099 32.8482 118.074 32.8966 118.025 32.8966C117.637 32.8966 117.198 32.8885 116.712 32.8724C116.243 32.8563 115.74 32.8482 115.206 32.8482C114.703 32.8482 114.241 32.8563 113.82 32.8724C113.399 32.8885 113.018 32.8966 112.677 32.8966C112.645 32.8966 112.629 32.8482 112.629 32.7516C112.629 32.655 112.645 32.6067 112.677 32.6067C113.488 32.6067 114.006 32.5021 114.233 32.2927C114.476 32.0833 114.582 31.6325 114.549 30.9401L114.112 19.0322L114.817 18.1385L108.448 32.7275C108.432 32.7919 108.367 32.8241 108.253 32.8241C108.14 32.8241 108.067 32.7919 108.035 32.7275L102.103 19.8051C101.585 18.6618 100.75 18.0902 99.5997 18.0902C99.5672 18.0902 99.551 18.0419 99.551 17.9452C99.551 17.8486 99.5672 17.8003 99.5997 17.8003C99.8427 17.8003 100.102 17.8083 100.378 17.8245C100.653 17.8406 100.88 17.8486 101.058 17.8486C101.285 17.8486 101.496 17.8406 101.69 17.8245C101.885 17.8083 102.03 17.8003 102.128 17.8003C102.355 17.8003 102.533 17.8728 102.662 18.0177C102.792 18.1626 102.987 18.5088 103.246 19.0563L108.812 31.0125L108.18 32.027L114.16 18.4042C114.241 18.2271 114.347 18.0822 114.476 17.9694C114.622 17.8566 114.76 17.8003 114.889 17.8003C114.97 17.8003 115.092 17.8083 115.254 17.8245C115.416 17.8406 115.603 17.8486 115.813 17.8486C116.235 17.8486 116.575 17.8406 116.834 17.8245C117.093 17.8083 117.369 17.8003 117.66 17.8003C117.693 17.8003 117.709 17.8486 117.709 17.9452C117.709 18.0419 117.693 18.0902 117.66 18.0902C116.866 18.0902 116.283 18.1948 115.91 18.4042C115.538 18.5974 115.359 19.0322 115.376 19.7085L115.838 30.9401C115.854 31.407 115.91 31.7613 116.008 32.0029C116.121 32.2444 116.332 32.4055 116.64 32.4859C116.948 32.5664 117.41 32.6067 118.025 32.6067ZM128.503 31.085C126.867 31.085 125.466 30.8193 124.299 30.2879C123.148 29.7404 122.265 29.0158 121.649 28.1141C121.05 27.1962 120.749 26.1818 120.749 25.0707C120.749 24.0401 120.985 23.1464 121.454 22.3896C121.924 21.6166 122.557 20.9806 123.351 20.4814C124.161 19.9662 125.069 19.5797 126.073 19.322C127.078 19.0643 128.106 18.9356 129.161 18.9356C130.878 18.9356 132.312 19.2254 133.463 19.8051C134.629 20.3686 135.505 21.1094 136.088 22.0273C136.688 22.9451 136.988 23.9113 136.988 24.9257C136.988 26.069 136.623 27.1076 135.894 28.0416C135.18 28.9756 134.183 29.7162 132.903 30.2638C131.623 30.8113 130.157 31.085 128.503 31.085ZM128.844 30.7469C130.109 30.7469 131.235 30.5295 132.223 30.0947C133.211 29.6438 133.989 28.9916 134.557 28.1382C135.14 27.2848 135.432 26.2542 135.432 25.0465C135.432 23.9837 135.197 23.0096 134.727 22.1239C134.257 21.2382 133.536 20.5377 132.564 20.0225C131.607 19.4911 130.383 19.2254 128.893 19.2254C127.483 19.2254 126.284 19.4669 125.296 19.95C124.323 20.417 123.577 21.0772 123.059 21.9306C122.557 22.784 122.305 23.7664 122.305 24.8774C122.305 25.9241 122.549 26.8984 123.035 27.8001C123.521 28.6858 124.242 29.4022 125.198 29.9498C126.17 30.4812 127.386 30.7469 128.844 30.7469ZM125.417 33.8869C125.368 33.8869 125.343 33.8386 125.343 33.7419C125.343 33.6453 125.368 33.597 125.417 33.597C126.195 33.597 126.779 33.5407 127.167 33.4279C127.573 33.3313 127.839 33.1703 127.97 32.9449C128.099 32.7355 128.164 32.4618 128.164 32.1236V18.3559C128.164 17.9211 128.099 17.5909 127.97 17.3655C127.839 17.1401 127.573 16.9871 127.167 16.9066C126.779 16.8261 126.195 16.7858 125.417 16.7858C125.368 16.7858 125.343 16.7456 125.343 16.6651C125.343 16.5685 125.368 16.5202 125.417 16.5202C125.871 16.5202 126.38 16.5282 126.948 16.5443C127.531 16.5605 128.148 16.5685 128.795 16.5685C129.476 16.5685 130.1 16.5605 130.668 16.5443C131.251 16.5282 131.761 16.5202 132.199 16.5202C132.247 16.5202 132.272 16.5685 132.272 16.6651C132.272 16.7456 132.247 16.7858 132.199 16.7858C131.438 16.7858 130.854 16.8342 130.448 16.9308C130.06 17.0112 129.801 17.1723 129.671 17.4139C129.54 17.6392 129.476 17.9694 129.476 18.4042V32.1236C129.476 32.4618 129.54 32.7355 129.671 32.9449C129.801 33.1703 130.06 33.3313 130.448 33.4279C130.838 33.5407 131.42 33.597 132.199 33.597C132.247 33.597 132.272 33.6453 132.272 33.7419C132.272 33.8386 132.247 33.8869 132.199 33.8869C131.745 33.8869 131.235 33.8789 130.668 33.8627C130.1 33.8466 129.476 33.8386 128.795 33.8386C128.148 33.8386 127.531 33.8466 126.948 33.8627C126.38 33.8789 125.871 33.8869 125.417 33.8869ZM148.039 33.1864C146.871 33.1864 145.81 32.9852 144.855 32.5826C143.914 32.1639 143.104 31.5922 142.424 30.8676C141.759 30.143 141.24 29.3138 140.868 28.3798C140.511 27.4297 140.333 26.4233 140.333 25.3605C140.333 24.0562 140.584 22.913 141.086 21.9306C141.605 20.9483 142.286 20.1352 143.129 19.4911C143.971 18.8309 144.895 18.3397 145.899 18.0177C146.904 17.6957 147.901 17.5346 148.889 17.5346C150.089 17.5346 151.158 17.752 152.098 18.1868C153.055 18.6054 153.865 19.1771 154.529 19.9017C155.194 20.6263 155.696 21.4476 156.036 22.3654C156.393 23.2833 156.57 24.2253 156.57 25.1914C156.57 26.3187 156.344 27.3653 155.89 28.3315C155.437 29.2976 154.812 30.143 154.018 30.8676C153.24 31.5922 152.333 32.1639 151.296 32.5826C150.275 32.9852 149.189 33.1864 148.039 33.1864ZM148.914 32.7033C150.049 32.7033 151.077 32.4456 152.001 31.9304C152.924 31.399 153.653 30.6261 154.188 29.6116C154.739 28.581 155.015 27.3331 155.015 25.8677C155.015 24.338 154.715 22.9934 154.116 21.834C153.532 20.6585 152.705 19.7406 151.637 19.0805C150.566 18.4042 149.311 18.066 147.868 18.066C145.988 18.066 144.522 18.6457 143.468 19.8051C142.415 20.9645 141.889 22.5425 141.889 24.5393C141.889 25.6665 142.051 26.7293 142.375 27.7276C142.715 28.7099 143.193 29.5795 143.809 30.3362C144.441 31.077 145.187 31.6567 146.046 32.0753C146.904 32.494 147.861 32.7033 148.914 32.7033ZM163.246 30.8435C163.246 31.3265 163.312 31.6969 163.441 31.9546C163.587 32.1961 163.879 32.3652 164.316 32.4618C164.753 32.5584 165.41 32.6067 166.285 32.6067C166.334 32.6067 166.358 32.655 166.358 32.7516C166.358 32.8482 166.334 32.8966 166.285 32.8966C165.766 32.8966 165.199 32.8885 164.583 32.8724C163.984 32.8563 163.328 32.8482 162.614 32.8482C162.096 32.8482 161.593 32.8563 161.107 32.8724C160.621 32.8885 160.183 32.8966 159.795 32.8966C159.762 32.8966 159.746 32.8482 159.746 32.7516C159.746 32.655 159.762 32.6067 159.795 32.6067C160.411 32.6067 160.872 32.5664 161.18 32.4859C161.488 32.4055 161.691 32.2444 161.787 32.0029C161.901 31.7613 161.958 31.407 161.958 30.9401V19.7568C161.958 19.2899 161.901 18.9436 161.787 18.7182C161.691 18.4766 161.488 18.3156 161.18 18.2351C160.872 18.1385 160.411 18.0902 159.795 18.0902C159.762 18.0902 159.746 18.0419 159.746 17.9452C159.746 17.8486 159.762 17.8003 159.795 17.8003C160.183 17.8003 160.613 17.8165 161.082 17.8486C161.569 17.8648 162.072 17.8728 162.59 17.8728C163.011 17.8728 163.522 17.8486 164.122 17.8003C164.721 17.752 165.346 17.7279 165.993 17.7279C166.885 17.7279 167.695 17.8648 168.424 18.1385C169.153 18.4122 169.728 18.8389 170.15 19.4186C170.587 19.9983 170.806 20.7551 170.806 21.6891C170.806 22.5425 170.645 23.2753 170.32 23.8871C169.996 24.499 169.566 25.0062 169.032 25.4088C168.513 25.7953 167.938 26.0851 167.306 26.2784C166.673 26.4716 166.05 26.5682 165.434 26.5682C165.223 26.5682 165.013 26.5602 164.802 26.5441C164.608 26.5279 164.421 26.4958 164.243 26.4474C164.178 26.4313 164.153 26.375 164.17 26.2784C164.202 26.1656 164.243 26.1173 164.291 26.1334C164.438 26.1656 164.583 26.1898 164.729 26.2059C164.891 26.222 165.037 26.2301 165.167 26.2301C165.879 26.2301 166.552 26.0851 167.184 25.7953C167.817 25.5054 168.327 25.0627 168.716 24.4668C169.104 23.855 169.3 23.09 169.3 22.1722C169.3 21.2865 169.121 20.5377 168.765 19.9259C168.424 19.314 167.962 18.8469 167.378 18.5249C166.796 18.2029 166.147 18.0419 165.434 18.0419C164.851 18.0419 164.396 18.074 164.073 18.1385C163.765 18.1868 163.546 18.3317 163.417 18.5732C163.303 18.8148 163.246 19.2254 163.246 19.8051V30.8435ZM177.2 18.2109C176.179 18.2109 175.434 18.4525 174.964 18.9356C174.511 19.4186 174.194 20.2802 174.016 21.52C174.016 21.5522 173.967 21.5683 173.871 21.5683C173.773 21.5683 173.724 21.5522 173.724 21.52C173.757 21.3268 173.789 21.045 173.822 20.6746C173.871 20.3043 173.911 19.9097 173.943 19.4911C173.976 19.0563 174 18.6457 174.016 18.2592C174.049 17.8566 174.065 17.5266 174.065 17.2689C174.065 17.1885 174.114 17.1482 174.21 17.1482C174.308 17.1482 174.357 17.1885 174.357 17.2689C174.357 17.43 174.429 17.5508 174.575 17.6312C174.737 17.6957 174.915 17.744 175.109 17.7762C175.32 17.7923 175.499 17.8003 175.644 17.8003C177.038 17.8486 178.667 17.8728 180.53 17.8728C181.681 17.8728 182.589 17.8648 183.253 17.8486C183.933 17.8165 184.589 17.8003 185.222 17.8003C185.757 17.8003 186.17 17.7682 186.462 17.7037C186.77 17.6232 186.964 17.4541 187.045 17.1965C187.062 17.132 187.109 17.0999 187.191 17.0999C187.272 17.0999 187.312 17.132 187.312 17.1965C187.296 17.438 187.272 17.76 187.24 18.1626C187.207 18.5652 187.183 18.9919 187.167 19.4428C187.151 19.8776 187.134 20.2882 187.118 20.6746C187.102 21.045 187.093 21.3268 187.093 21.52C187.093 21.5522 187.045 21.5683 186.948 21.5683C186.85 21.5683 186.802 21.5522 186.802 21.52C186.802 20.2802 186.591 19.4186 186.17 18.9356C185.749 18.4525 184.979 18.2109 183.86 18.2109C183.099 18.2109 182.524 18.2431 182.135 18.3076C181.762 18.3559 181.511 18.4928 181.382 18.7182C181.268 18.9275 181.211 19.2899 181.211 19.8051V30.9401C181.211 31.407 181.268 31.7613 181.382 32.0029C181.495 32.2444 181.721 32.4055 182.062 32.4859C182.419 32.5664 182.954 32.6067 183.666 32.6067C183.699 32.6067 183.715 32.655 183.715 32.7516C183.715 32.8482 183.699 32.8966 183.666 32.8966C183.244 32.8966 182.767 32.8885 182.232 32.8724C181.714 32.8563 181.146 32.8482 180.53 32.8482C179.948 32.8482 179.388 32.8563 178.853 32.8724C178.335 32.8885 177.856 32.8966 177.419 32.8966C177.386 32.8966 177.37 32.8482 177.37 32.7516C177.37 32.655 177.386 32.6067 177.419 32.6067C178.115 32.6067 178.643 32.5664 178.998 32.4859C179.355 32.4055 179.591 32.2444 179.705 32.0029C179.834 31.7613 179.899 31.407 179.899 30.9401V19.7568C179.899 19.2415 179.834 18.8792 179.705 18.6699C179.574 18.4445 179.315 18.3156 178.926 18.2834C178.537 18.2351 177.961 18.2109 177.2 18.2109ZM203.207 19.8051C203.207 19.3382 203.158 18.9839 203.06 18.7423C202.963 18.5008 202.761 18.3317 202.453 18.2351C202.145 18.1385 201.675 18.0902 201.043 18.0902C200.994 18.0902 200.97 18.0419 200.97 17.9452C200.97 17.8486 200.994 17.8003 201.043 17.8003C201.416 17.8003 201.837 17.8165 202.306 17.8486C202.792 17.8648 203.312 17.8728 203.862 17.8728C204.38 17.8728 204.884 17.8648 205.37 17.8486C205.856 17.8165 206.285 17.8003 206.657 17.8003C206.706 17.8003 206.731 17.8486 206.731 17.9452C206.731 18.0419 206.706 18.0902 206.657 18.0902C206.042 18.0902 205.573 18.1385 205.248 18.2351C204.94 18.3156 204.73 18.4766 204.616 18.7182C204.518 18.9436 204.47 19.2899 204.47 19.7568V30.9401C204.47 31.407 204.518 31.7613 204.616 32.0029C204.73 32.2444 204.94 32.4055 205.248 32.4859C205.573 32.5664 206.042 32.6067 206.657 32.6067C206.706 32.6067 206.731 32.655 206.731 32.7516C206.731 32.8482 206.706 32.8966 206.657 32.8966C206.285 32.8966 205.856 32.8885 205.37 32.8724C204.884 32.8563 204.38 32.8482 203.862 32.8482C203.312 32.8482 202.792 32.8563 202.306 32.8724C201.837 32.8885 201.416 32.8966 201.043 32.8966C200.994 32.8966 200.97 32.8482 200.97 32.7516C200.97 32.655 200.994 32.6067 201.043 32.6067C201.675 32.6067 202.145 32.5664 202.453 32.4859C202.761 32.4055 202.963 32.2444 203.06 32.0029C203.158 31.7613 203.207 31.407 203.207 30.9401V19.8051ZM192.802 25.2639V24.805H203.74V25.2639H192.802ZM192.219 30.9401V19.7568C192.219 19.2899 192.162 18.9436 192.049 18.7182C191.951 18.4766 191.749 18.3156 191.441 18.2351C191.133 18.1385 190.671 18.0902 190.056 18.0902C190.023 18.0902 190.007 18.0419 190.007 17.9452C190.007 17.8486 190.023 17.8003 190.056 17.8003C190.444 17.8003 190.874 17.8165 191.343 17.8486C191.829 17.8648 192.333 17.8728 192.85 17.8728C193.418 17.8728 193.936 17.8648 194.407 17.8486C194.877 17.8165 195.297 17.8003 195.671 17.8003C195.703 17.8003 195.719 17.8486 195.719 17.9452C195.719 18.0419 195.703 18.0902 195.671 18.0902C195.054 18.0902 194.592 18.1385 194.285 18.2351C193.977 18.3317 193.767 18.5008 193.653 18.7423C193.555 18.9839 193.508 19.3382 193.508 19.8051V30.9401C193.508 31.407 193.555 31.7613 193.653 32.0029C193.751 32.2444 193.952 32.4055 194.26 32.4859C194.585 32.5664 195.054 32.6067 195.671 32.6067C195.703 32.6067 195.719 32.655 195.719 32.7516C195.719 32.8482 195.703 32.8966 195.671 32.8966C195.281 32.8966 194.853 32.8885 194.382 32.8724C193.928 32.8563 193.418 32.8482 192.85 32.8482C192.333 32.8482 191.829 32.8563 191.343 32.8724C190.857 32.8885 190.42 32.8966 190.031 32.8966C189.998 32.8966 189.982 32.8482 189.982 32.7516C189.982 32.655 189.998 32.6067 190.031 32.6067C190.647 32.6067 191.109 32.5664 191.416 32.4859C191.74 32.4055 191.951 32.2444 192.049 32.0029C192.162 31.7613 192.219 31.407 192.219 30.9401ZM215.915 32.9932C215.655 32.9932 215.315 32.977 214.894 32.9449C214.488 32.9287 214.067 32.9127 213.63 32.8966C213.192 32.8644 212.795 32.8482 212.439 32.8482C211.92 32.8482 211.418 32.8563 210.931 32.8724C210.445 32.8885 210.008 32.8966 209.618 32.8966C209.586 32.8966 209.571 32.8482 209.571 32.7516C209.571 32.655 209.586 32.6067 209.618 32.6067C210.235 32.6067 210.697 32.5664 211.005 32.4859C211.328 32.4055 211.547 32.2444 211.661 32.0029C211.774 31.7613 211.83 31.407 211.83 30.9401V19.7568C211.83 19.2899 211.774 18.9436 211.661 18.7182C211.563 18.4766 211.361 18.3156 211.054 18.2351C210.746 18.1385 210.283 18.0902 209.667 18.0902C209.618 18.0902 209.595 18.0419 209.595 17.9452C209.595 17.8486 209.618 17.8003 209.667 17.8003C210.04 17.8003 210.461 17.8165 210.931 17.8486C211.402 17.8648 211.895 17.8728 212.414 17.8728C212.981 17.8728 213.508 17.8648 213.994 17.8486C214.48 17.8165 214.901 17.8003 215.258 17.8003C215.307 17.8003 215.331 17.8486 215.331 17.9452C215.331 18.0419 215.307 18.0902 215.258 18.0902C214.642 18.0902 214.181 18.1385 213.873 18.2351C213.565 18.3317 213.354 18.5008 213.241 18.7423C213.144 18.9839 213.095 19.3382 213.095 19.8051V30.9401C213.095 31.2944 213.152 31.6003 213.264 31.8579C213.378 32.0995 213.597 32.2847 213.922 32.4135C214.261 32.5423 214.764 32.6067 215.429 32.6067C216.79 32.6067 217.771 32.3088 218.369 31.713C218.969 31.1012 219.269 30.1833 219.269 28.9595C219.269 27.8967 219.098 27.0674 218.759 26.4716C218.435 25.8597 217.972 25.433 217.374 25.1914C216.79 24.9338 216.117 24.805 215.356 24.805C214.87 24.805 214.392 24.8453 213.922 24.9257C213.467 25.0062 213.014 25.111 212.56 25.2397L212.535 24.7808C213.07 24.652 213.614 24.5554 214.165 24.491C214.716 24.4105 215.291 24.3702 215.891 24.3702C216.798 24.3702 217.608 24.491 218.322 24.7325C219.051 24.9579 219.626 25.3605 220.048 25.9402C220.469 26.5038 220.679 27.3008 220.679 28.3315C220.679 29.2493 220.476 30.0625 220.071 30.771C219.682 31.4635 219.131 32.0109 218.418 32.4135C217.706 32.7999 216.87 32.9932 215.915 32.9932ZM225.662 30.9401C225.662 31.407 225.71 31.7613 225.808 32.0029C225.905 32.2444 226.107 32.4055 226.415 32.4859C226.74 32.5664 227.209 32.6067 227.826 32.6067C227.858 32.6067 227.874 32.655 227.874 32.7516C227.874 32.8482 227.858 32.8966 227.826 32.8966C227.436 32.8966 227.008 32.8885 226.537 32.8724C226.067 32.8563 225.549 32.8482 224.981 32.8482C224.446 32.8482 223.937 32.8563 223.451 32.8724C222.98 32.8885 222.55 32.8966 222.162 32.8966C222.113 32.8966 222.089 32.8482 222.089 32.7516C222.089 32.655 222.113 32.6067 222.162 32.6067C222.778 32.6067 223.239 32.5664 223.547 32.4859C223.872 32.4055 224.082 32.2444 224.18 32.0029C224.292 31.7613 224.35 31.407 224.35 30.9401V19.7568C224.35 19.2899 224.292 18.9436 224.18 18.7182C224.082 18.4766 223.872 18.3156 223.547 18.2351C223.239 18.1385 222.778 18.0902 222.162 18.0902C222.113 18.0902 222.089 18.0419 222.089 17.9452C222.089 17.8486 222.113 17.8003 222.162 17.8003C222.55 17.8003 222.98 17.8165 223.451 17.8486C223.937 17.8648 224.446 17.8728 224.981 17.8728C225.549 17.8728 226.067 17.8648 226.537 17.8486C227.024 17.8165 227.452 17.8003 227.826 17.8003C227.858 17.8003 227.874 17.8486 227.874 17.9452C227.874 18.0419 227.858 18.0902 227.826 18.0902C227.209 18.0902 226.748 18.1385 226.44 18.2351C226.132 18.3317 225.922 18.5008 225.808 18.7423C225.71 18.9839 225.662 19.3382 225.662 19.8051V30.9401ZM233.97 31.1333L233.606 30.771L244.278 19.4428L244.666 19.8051L233.97 31.1333ZM230.859 32.8966C230.827 32.8966 230.81 32.8482 230.81 32.7516C230.81 32.655 230.827 32.6067 230.859 32.6067C231.475 32.6067 231.937 32.5664 232.244 32.4859C232.569 32.4055 232.779 32.2444 232.877 32.0029C232.991 31.7613 233.047 31.407 233.047 30.9401V19.7568C233.047 19.2899 232.991 18.9436 232.877 18.7182C232.779 18.4766 232.577 18.3156 232.269 18.2351C231.961 18.1385 231.499 18.0902 230.884 18.0902C230.851 18.0902 230.835 18.0419 230.835 17.9452C230.835 17.8486 230.851 17.8003 230.884 17.8003C231.272 17.8003 231.702 17.8165 232.172 17.8486C232.658 17.8648 233.161 17.8728 233.678 17.8728C234.246 17.8728 234.764 17.8648 235.235 17.8486C235.705 17.8165 236.126 17.8003 236.499 17.8003C236.531 17.8003 236.548 17.8486 236.548 17.9452C236.548 18.0419 236.531 18.0902 236.499 18.0902C235.883 18.0902 235.422 18.1385 235.114 18.2351C234.805 18.3317 234.595 18.5008 234.481 18.7423C234.384 18.9839 234.336 19.3382 234.336 19.8051V30.9401C234.336 31.407 234.384 31.7613 234.481 32.0029C234.579 32.2444 234.781 32.4055 235.089 32.4859C235.413 32.5664 235.883 32.6067 236.499 32.6067C236.531 32.6067 236.548 32.655 236.548 32.7516C236.548 32.8482 236.531 32.8966 236.499 32.8966C236.109 32.8966 235.681 32.8885 235.21 32.8724C234.757 32.8563 234.246 32.8482 233.678 32.8482C233.161 32.8482 232.658 32.8563 232.172 32.8724C231.686 32.8885 231.248 32.8966 230.859 32.8966ZM241.579 32.8966C241.546 32.8966 241.53 32.8482 241.53 32.7516C241.53 32.655 241.546 32.6067 241.579 32.6067C242.211 32.6067 242.681 32.5664 242.989 32.4859C243.297 32.4055 243.499 32.2444 243.597 32.0029C243.694 31.7613 243.743 31.407 243.743 30.9401V19.8051C243.743 19.3382 243.694 18.9839 243.597 18.7423C243.499 18.5008 243.297 18.3317 242.989 18.2351C242.681 18.1385 242.211 18.0902 241.579 18.0902C241.546 18.0902 241.53 18.0419 241.53 17.9452C241.53 17.8486 241.546 17.8003 241.579 17.8003C241.968 17.8003 242.398 17.8165 242.868 17.8486C243.337 17.8648 243.848 17.8728 244.398 17.8728C244.918 17.8728 245.42 17.8648 245.906 17.8486C246.392 17.8165 246.829 17.8003 247.219 17.8003C247.251 17.8003 247.268 17.8486 247.268 17.9452C247.268 18.0419 247.251 18.0902 247.219 18.0902C246.603 18.0902 246.133 18.1385 245.809 18.2351C245.5 18.3156 245.29 18.4766 245.177 18.7182C245.08 18.9436 245.031 19.2899 245.031 19.7568V30.9401C245.031 31.407 245.08 31.7613 245.177 32.0029C245.29 32.2444 245.5 32.4055 245.809 32.4859C246.133 32.5664 246.603 32.6067 247.219 32.6067C247.251 32.6067 247.268 32.655 247.268 32.7516C247.268 32.8482 247.251 32.8966 247.219 32.8966C246.829 32.8966 246.392 32.8885 245.906 32.8724C245.42 32.8563 244.918 32.8482 244.398 32.8482C243.848 32.8482 243.337 32.8563 242.868 32.8724C242.398 32.8885 241.968 32.8966 241.579 32.8966ZM239.026 16.3511C239.512 16.3511 239.902 16.2062 240.194 15.9163C240.502 15.6265 240.712 15.2803 240.826 14.8777C240.906 14.5878 241.004 14.3302 241.117 14.1048C241.247 13.8794 241.466 13.7666 241.773 13.7666C241.985 13.7666 242.139 13.8311 242.235 13.9598C242.333 14.0726 242.382 14.2335 242.382 14.4429C242.382 14.8294 242.219 15.1917 241.896 15.5298C241.571 15.8519 241.158 16.1175 240.656 16.3269C240.152 16.5202 239.619 16.6168 239.051 16.6168C238.484 16.6168 237.942 16.5121 237.422 16.3028C236.92 16.0934 236.515 15.8197 236.207 15.4815C235.899 15.1434 235.745 14.7891 235.745 14.4188C235.745 14.2094 235.794 14.0484 235.891 13.9357C236.004 13.8229 236.158 13.7666 236.352 13.7666C236.677 13.7666 236.896 13.8794 237.01 14.1048C237.123 14.3141 237.22 14.5717 237.301 14.8777C237.398 15.232 237.585 15.5701 237.86 15.8922C238.136 16.1981 238.524 16.3511 239.026 16.3511ZM271.732 32.6067C271.879 32.6067 271.96 32.6229 271.975 32.655C272.008 32.6712 272.024 32.7516 272.024 32.8966C272.024 33.1059 272 33.3393 271.951 33.597C271.919 33.8547 271.886 34.225 271.854 34.7081C271.822 35.2073 271.806 35.9238 271.806 36.8578C271.806 36.9223 271.757 36.9544 271.66 36.9544C271.563 36.9544 271.514 36.9223 271.514 36.8578C271.514 35.473 271.239 34.4666 270.688 33.8386C270.137 33.2106 269.181 32.8966 267.819 32.8966H259.846C259.295 32.8966 258.784 33.0093 258.314 33.2347C257.845 33.4601 257.472 33.8547 257.196 34.4183C256.921 34.998 256.783 35.8112 256.783 36.8578C256.783 36.9223 256.735 36.9544 256.637 36.9544C256.54 36.9544 256.491 36.9223 256.491 36.8578C256.491 36.1654 256.476 35.6098 256.443 35.1912C256.427 34.7726 256.402 34.4344 256.369 34.1767C256.338 33.919 256.305 33.6936 256.273 33.5004C256.257 33.3233 256.248 33.122 256.248 32.8966C256.248 32.7678 256.257 32.6872 256.273 32.655C256.305 32.6229 256.378 32.6067 256.491 32.6067C257.188 32.6067 257.812 32.3813 258.363 31.9304C258.914 31.4635 259.4 30.8515 259.821 30.0947C260.259 29.3218 260.632 28.4764 260.94 27.5585C261.248 26.6245 261.498 25.6907 261.694 24.7567C261.888 23.8066 262.026 22.921 262.107 22.0997C262.203 21.2623 262.252 20.57 262.252 20.0225C262.252 19.636 262.22 19.2979 262.156 19.008C262.091 18.7182 261.888 18.4928 261.547 18.3317C261.208 18.1706 260.632 18.0902 259.821 18.0902C259.79 18.0902 259.772 18.0419 259.772 17.9452C259.772 17.8486 259.79 17.8003 259.821 17.8003C259.919 17.8003 260.187 17.8003 260.624 17.8003C261.077 17.8003 261.637 17.8003 262.301 17.8003C262.981 17.8003 263.711 17.8003 264.489 17.8003C265.267 17.8003 266.036 17.8003 266.799 17.8003C267.576 17.8003 268.289 17.8003 268.938 17.8003C269.602 17.8003 270.144 17.8003 270.566 17.8003C270.987 17.8003 271.23 17.8003 271.295 17.8003C271.328 17.8003 271.344 17.8486 271.344 17.9452C271.344 18.0419 271.328 18.0902 271.295 18.0902C270.679 18.0902 270.209 18.1385 269.885 18.2351C269.578 18.3156 269.366 18.4766 269.253 18.7182C269.156 18.9436 269.107 19.2899 269.107 19.7568V30.9401C269.107 31.3427 269.116 31.6647 269.132 31.9062C269.165 32.1316 269.253 32.2927 269.399 32.3893C269.562 32.4859 269.821 32.5504 270.177 32.5826C270.534 32.5987 271.052 32.6067 271.732 32.6067ZM267.819 30.8918V19.8051C267.819 19.3059 267.787 18.9517 267.722 18.7423C267.673 18.5329 267.503 18.4122 267.212 18.38C266.92 18.3317 266.433 18.3076 265.753 18.3076H264.611C264.141 18.3076 263.792 18.388 263.565 18.5491C263.354 18.694 263.209 18.9759 263.128 19.3945C263.063 19.8131 262.999 20.4411 262.933 21.2785C262.917 21.5039 262.868 21.8985 262.787 22.462C262.707 23.0256 262.593 23.6859 262.446 24.4427C262.301 25.1994 262.115 25.9965 261.888 26.8339C261.661 27.6713 261.393 28.4844 261.086 29.2735C260.778 30.0464 260.421 30.7388 260.016 31.3507C259.611 31.9465 259.15 32.3973 258.63 32.7033L258.655 32.3893H265.631C266.36 32.3893 266.871 32.3652 267.163 32.3169C267.47 32.2686 267.657 32.1398 267.722 31.9304C267.787 31.721 267.819 31.3749 267.819 30.8918ZM282.557 33.1864C281.39 33.1864 280.328 32.9852 279.373 32.5826C278.432 32.1639 277.623 31.5922 276.942 30.8676C276.278 30.143 275.758 29.3138 275.386 28.3798C275.029 27.4297 274.851 26.4233 274.851 25.3605C274.851 24.0562 275.103 22.913 275.605 21.9306C276.124 20.9483 276.804 20.1352 277.647 19.4911C278.49 18.8309 279.413 18.3397 280.417 18.0177C281.423 17.6957 282.419 17.5346 283.408 17.5346C284.607 17.5346 285.676 17.752 286.617 18.1868C287.573 18.6054 288.383 19.1771 289.047 19.9017C289.712 20.6263 290.214 21.4476 290.555 22.3654C290.91 23.2833 291.089 24.2253 291.089 25.1914C291.089 26.3187 290.863 27.3653 290.408 28.3315C289.955 29.2976 289.331 30.143 288.537 30.8676C287.759 31.5922 286.851 32.1639 285.814 32.5826C284.793 32.9852 283.707 33.1864 282.557 33.1864ZM283.432 32.7033C284.567 32.7033 285.595 32.4456 286.519 31.9304C287.442 31.399 288.172 30.6261 288.707 29.6116C289.257 28.581 289.534 27.3331 289.534 25.8677C289.534 24.338 289.233 22.9934 288.634 21.834C288.051 20.6585 287.224 19.7406 286.155 19.0805C285.085 18.4042 283.829 18.066 282.386 18.066C280.507 18.066 279.041 18.6457 277.987 19.8051C276.934 20.9645 276.407 22.5425 276.407 24.5393C276.407 25.6665 276.568 26.7293 276.893 27.7276C277.233 28.7099 277.712 29.5795 278.327 30.3362C278.959 31.077 279.705 31.6567 280.564 32.0753C281.423 32.494 282.379 32.7033 283.432 32.7033ZM296.16 30.3845L296.403 18.3559L296.938 18.4042L296.72 30.3845C296.703 31.2058 296.833 31.7855 297.108 32.1236C297.4 32.4456 297.951 32.6067 298.761 32.6067C298.794 32.6067 298.81 32.655 298.81 32.7516C298.81 32.8482 298.794 32.8966 298.761 32.8966C298.404 32.8966 298.032 32.8885 297.643 32.8724C297.271 32.8563 296.858 32.8482 296.403 32.8482C296.015 32.8482 295.642 32.8563 295.286 32.8724C294.929 32.8885 294.588 32.8966 294.264 32.8966C294.231 32.8966 294.216 32.8482 294.216 32.7516C294.216 32.655 294.231 32.6067 294.264 32.6067C294.945 32.6067 295.422 32.4456 295.699 32.1236C295.99 31.7855 296.144 31.2058 296.16 30.3845ZM312.86 32.6067C312.908 32.6067 312.933 32.655 312.933 32.7516C312.933 32.8482 312.908 32.8966 312.86 32.8966C312.471 32.8966 312.034 32.8885 311.548 32.8724C311.077 32.8563 310.575 32.8482 310.04 32.8482C309.538 32.8482 309.077 32.8563 308.655 32.8724C308.234 32.8885 307.853 32.8966 307.512 32.8966C307.48 32.8966 307.464 32.8482 307.464 32.7516C307.464 32.655 307.48 32.6067 307.512 32.6067C308.323 32.6067 308.841 32.5021 309.068 32.2927C309.311 32.0833 309.416 31.6325 309.384 30.9401L308.946 19.0322L309.652 18.1385L303.283 32.7275C303.266 32.7919 303.201 32.8241 303.089 32.8241C302.975 32.8241 302.902 32.7919 302.869 32.7275L296.938 19.8051C296.419 18.6618 295.585 18.0902 294.434 18.0902C294.402 18.0902 294.385 18.0419 294.385 17.9452C294.385 17.8486 294.402 17.8003 294.434 17.8003C294.677 17.8003 294.936 17.8083 295.212 17.8245C295.487 17.8406 295.714 17.8486 295.893 17.8486C296.12 17.8486 296.33 17.8406 296.525 17.8245C296.72 17.8083 296.865 17.8003 296.963 17.8003C297.189 17.8003 297.367 17.8728 297.498 18.0177C297.627 18.1626 297.822 18.5088 298.08 19.0563L303.647 31.0125L303.015 32.027L308.995 18.4042C309.077 18.2271 309.182 18.0822 309.311 17.9694C309.456 17.8566 309.594 17.8003 309.724 17.8003C309.806 17.8003 309.927 17.8083 310.089 17.8245C310.25 17.8406 310.437 17.8486 310.647 17.8486C311.069 17.8486 311.41 17.8406 311.669 17.8245C311.929 17.8083 312.204 17.8003 312.496 17.8003C312.527 17.8003 312.544 17.8486 312.544 17.9452C312.544 18.0419 312.527 18.0902 312.496 18.0902C311.702 18.0902 311.118 18.1948 310.745 18.4042C310.373 18.5974 310.194 19.0322 310.21 19.7085L310.672 30.9401C310.689 31.407 310.745 31.7613 310.843 32.0029C310.956 32.2444 311.167 32.4055 311.474 32.4859C311.782 32.5664 312.244 32.6067 312.86 32.6067Z" fill="black"/>
<path d="M65.2724 49.5724C65.1771 49.5724 65.103 49.5461 65.0501 49.4936C64.9972 49.4357 64.9707 49.3568 64.9707 49.2569V44.2155C64.9707 44.1102 64.9972 44.0314 65.0501 43.9788C65.103 43.9262 65.1771 43.8999 65.2724 43.8999C65.3571 43.8999 65.4233 43.9183 65.4709 43.9551C65.5238 43.9867 65.5714 44.0419 65.6138 44.1208L67.7894 48.1918H67.5512L69.7187 44.1208C69.7611 44.0419 69.8061 43.9867 69.8537 43.9551C69.9014 43.9183 69.9701 43.8999 70.0601 43.8999C70.1502 43.8999 70.2216 43.9262 70.2745 43.9788C70.3274 44.0314 70.3539 44.1102 70.3539 44.2155V49.2569C70.3539 49.3568 70.3274 49.4357 70.2745 49.4936C70.2269 49.5461 70.1527 49.5724 70.0522 49.5724C69.9569 49.5724 69.8828 49.5461 69.8299 49.4936C69.777 49.4357 69.7505 49.3568 69.7505 49.2569V44.823H69.9411L67.9561 48.5231C67.9191 48.5915 67.8794 48.6415 67.837 48.673C67.8 48.6994 67.7444 48.7125 67.6703 48.7125C67.5961 48.7125 67.538 48.6967 67.4956 48.6652C67.4532 48.6336 67.4162 48.5863 67.3844 48.5231L65.3756 44.8151H65.5662V49.2569C65.5662 49.3568 65.5397 49.4357 65.4868 49.4936C65.4392 49.5461 65.3677 49.5724 65.2724 49.5724ZM75.0422 49.5724C74.9575 49.5724 74.8887 49.554 74.8358 49.5172C74.7882 49.4751 74.759 49.4225 74.7485 49.3594C74.7431 49.2911 74.759 49.2147 74.7961 49.1306L76.9796 44.1918C77.0272 44.0866 77.0828 44.013 77.1463 43.9709C77.2151 43.9236 77.2892 43.8999 77.3686 43.8999C77.448 43.8999 77.5195 43.9236 77.583 43.9709C77.6518 44.013 77.7073 44.0866 77.7497 44.1918L79.9411 49.1306C79.9834 49.2147 79.9993 49.2911 79.9888 49.3594C79.9834 49.4278 79.957 49.4804 79.9094 49.5172C79.8617 49.554 79.7955 49.5724 79.7109 49.5724C79.6156 49.5724 79.5388 49.5488 79.4806 49.5014C79.4223 49.4489 79.3747 49.3752 79.3377 49.2805L78.7501 47.9314L79.0677 48.0971H75.6536L75.9791 47.9314L75.3995 49.2805C75.3519 49.3804 75.3016 49.4541 75.2487 49.5014C75.1957 49.5488 75.1269 49.5724 75.0422 49.5724ZM77.3607 44.7125L76.0824 47.7026L75.8918 47.5527H78.8295L78.6549 47.7026L77.3765 44.7125H77.3607ZM86.5875 49.5882C86.0371 49.5882 85.566 49.4726 85.1742 49.2411C84.7825 49.0096 84.4808 48.6809 84.2691 48.2549C84.0626 47.8289 83.9594 47.3213 83.9594 46.7322C83.9594 46.2904 84.0177 45.8959 84.1341 45.5488C84.2559 45.1964 84.4279 44.8992 84.6502 44.6573C84.8779 44.41 85.1558 44.2207 85.4839 44.0892C85.8121 43.9525 86.18 43.8841 86.5875 43.8841C86.9157 43.8841 87.2281 43.9315 87.5244 44.0261C87.8209 44.1156 88.0776 44.2497 88.2946 44.4285C88.3635 44.4811 88.4084 44.5416 88.4296 44.61C88.4561 44.6731 88.4586 44.7362 88.4375 44.7993C88.4216 44.8572 88.3899 44.9071 88.3422 44.9492C88.3 44.986 88.2469 45.0044 88.1834 45.0044C88.1199 45.0044 88.0484 44.9781 87.969 44.9255C87.7785 44.773 87.5695 44.66 87.3418 44.5863C87.1142 44.5126 86.8681 44.4758 86.6034 44.4758C86.1853 44.4758 85.8307 44.5653 85.5395 44.7441C85.2484 44.9176 85.0287 45.1728 84.8804 45.5094C84.7323 45.8459 84.6581 46.2536 84.6581 46.7322C84.6581 47.2108 84.7323 47.6211 84.8804 47.963C85.0287 48.2996 85.2484 48.5574 85.5395 48.7362C85.8307 48.9097 86.1853 48.9965 86.6034 48.9965C86.8628 48.9965 87.109 48.9597 87.3418 48.8861C87.5747 48.8072 87.7891 48.6915 87.9849 48.5389C88.0643 48.4864 88.1358 48.4627 88.1993 48.4679C88.2628 48.4679 88.3158 48.4864 88.3581 48.5231C88.4005 48.5599 88.4296 48.6073 88.4454 48.6652C88.4667 48.7231 88.4667 48.7835 88.4454 48.8466C88.4296 48.9097 88.3899 48.965 88.3263 49.0123C88.104 49.2016 87.842 49.3463 87.5403 49.4462C87.244 49.5409 86.9264 49.5882 86.5875 49.5882ZM94.544 49.5724C94.4433 49.5724 94.3639 49.5436 94.3058 49.4857C94.2475 49.4225 94.2185 49.3384 94.2185 49.2332V44.5153H92.432C92.3367 44.5153 92.2626 44.4889 92.2097 44.4364C92.1567 44.3838 92.1303 44.3154 92.1303 44.2313C92.1303 44.1418 92.1567 44.0735 92.2097 44.0261C92.2626 43.9788 92.3367 43.9551 92.432 43.9551H96.6639C96.7592 43.9551 96.8332 43.9788 96.8862 44.0261C96.9391 44.0735 96.9656 44.1418 96.9656 44.2313C96.9656 44.3207 96.9391 44.3917 96.8862 44.4443C96.8332 44.4916 96.7592 44.5153 96.6639 44.5153H94.8775V49.2332C94.8775 49.3384 94.8483 49.4225 94.7901 49.4857C94.7371 49.5436 94.6551 49.5724 94.544 49.5724ZM101.393 49.5172C101.276 49.5172 101.186 49.4883 101.123 49.4304C101.064 49.3673 101.035 49.2779 101.035 49.1622V44.3102C101.035 44.1945 101.064 44.1077 101.123 44.0498C101.186 43.9867 101.276 43.9551 101.393 43.9551H104.346C104.436 43.9551 104.505 43.9788 104.553 44.0261C104.6 44.0735 104.624 44.1393 104.624 44.2234C104.624 44.3128 104.6 44.3812 104.553 44.4285C104.505 44.4758 104.436 44.4995 104.346 44.4995H101.67V46.4245H104.179C104.269 46.4245 104.338 46.4482 104.386 46.4955C104.434 46.5377 104.457 46.6033 104.457 46.6928C104.457 46.7822 104.434 46.8506 104.386 46.8979C104.338 46.9452 104.269 46.9689 104.179 46.9689H101.67V48.9728H104.346C104.436 48.9728 104.505 48.9965 104.553 49.0439C104.6 49.0912 104.624 49.157 104.624 49.2411C104.624 49.3305 104.6 49.3989 104.553 49.4462C104.505 49.4936 104.436 49.5172 104.346 49.5172H101.393ZM109.404 49.5724C109.298 49.5724 109.216 49.5436 109.158 49.4857C109.105 49.4225 109.078 49.3384 109.078 49.2332V44.2865C109.078 44.176 109.108 44.0945 109.166 44.0419C109.224 43.984 109.306 43.9551 109.412 43.9551H111.294C111.892 43.9551 112.352 44.1024 112.675 44.3969C112.998 44.6862 113.16 45.0964 113.16 45.6277C113.16 46.1536 112.998 46.5639 112.675 46.8585C112.352 47.153 111.892 47.3003 111.294 47.3003H109.73V49.2332C109.73 49.3384 109.703 49.4225 109.65 49.4857C109.597 49.5436 109.515 49.5724 109.404 49.5724ZM109.73 46.7559H111.214C111.643 46.7559 111.966 46.6612 112.183 46.4719C112.405 46.2773 112.516 45.9958 112.516 45.6277C112.516 45.2542 112.405 44.9729 112.183 44.7835C111.966 44.589 111.643 44.4916 111.214 44.4916H109.73V46.7559ZM119.861 49.5882C119.311 49.5882 118.839 49.4726 118.447 49.2411C118.056 49.0096 117.755 48.6809 117.542 48.2549C117.336 47.8289 117.233 47.3213 117.233 46.7322C117.233 46.2904 117.292 45.8959 117.408 45.5488C117.53 45.1964 117.701 44.8992 117.923 44.6573C118.152 44.41 118.429 44.2207 118.758 44.0892C119.086 43.9525 119.454 43.8841 119.861 43.8841C120.189 43.8841 120.502 43.9315 120.797 44.0261C121.094 44.1156 121.351 44.2497 121.568 44.4285C121.637 44.4811 121.682 44.5416 121.703 44.61C121.729 44.6731 121.732 44.7362 121.711 44.7993C121.695 44.8572 121.663 44.9071 121.616 44.9492C121.573 44.986 121.521 45.0044 121.457 45.0044C121.394 45.0044 121.321 44.9781 121.242 44.9255C121.052 44.773 120.843 44.66 120.615 44.5863C120.388 44.5126 120.141 44.4758 119.876 44.4758C119.459 44.4758 119.104 44.5653 118.812 44.7441C118.522 44.9176 118.302 45.1728 118.154 45.5094C118.006 45.8459 117.932 46.2536 117.932 46.7322C117.932 47.2108 118.006 47.6211 118.154 47.963C118.302 48.2996 118.522 48.5574 118.812 48.7362C119.104 48.9097 119.459 48.9965 119.876 48.9965C120.137 48.9965 120.382 48.9597 120.615 48.8861C120.849 48.8072 121.063 48.6915 121.258 48.5389C121.337 48.4864 121.409 48.4627 121.473 48.4679C121.536 48.4679 121.589 48.4864 121.632 48.5231C121.674 48.5599 121.703 48.6073 121.718 48.6652C121.74 48.7231 121.74 48.7835 121.718 48.8466C121.703 48.9097 121.663 48.965 121.6 49.0123C121.378 49.2016 121.115 49.3463 120.813 49.4462C120.518 49.5409 120.2 49.5882 119.861 49.5882ZM126.521 49.5724C126.415 49.5724 126.333 49.5436 126.276 49.4857C126.222 49.4225 126.197 49.3384 126.197 49.2332V44.2313C126.197 44.1208 126.222 44.0392 126.276 43.9867C126.333 43.9288 126.415 43.8999 126.521 43.8999C126.628 43.8999 126.707 43.9288 126.76 43.9867C126.818 44.0392 126.848 44.1208 126.848 44.2313V46.4324H127.943L127.753 46.5587L129.404 44.0735C129.452 43.9998 129.507 43.9525 129.57 43.9315C129.634 43.9051 129.697 43.8999 129.761 43.9157C129.824 43.9262 129.877 43.9551 129.92 44.0025C129.962 44.0446 129.986 44.0998 129.992 44.1681C130.002 44.2313 129.983 44.2996 129.936 44.3733L128.388 46.6691L128.141 46.4561C128.464 46.4929 128.74 46.606 128.967 46.7953C129.194 46.9847 129.393 47.2477 129.563 47.5843L130.317 49.1149C130.359 49.199 130.373 49.2753 130.357 49.3437C130.341 49.4068 130.306 49.4568 130.253 49.4936C130.201 49.5303 130.14 49.5515 130.071 49.5567C130.008 49.5672 129.944 49.5567 129.881 49.5251C129.817 49.4936 129.766 49.4383 129.729 49.3594L129.023 47.8841C128.864 47.5633 128.684 47.3345 128.483 47.1977C128.287 47.0609 128.043 46.9926 127.753 46.9926H126.848V49.2332C126.848 49.3384 126.821 49.4225 126.768 49.4857C126.714 49.5436 126.633 49.5724 126.521 49.5724ZM134.438 49.5724C134.353 49.5724 134.284 49.554 134.232 49.5172C134.184 49.4751 134.155 49.4225 134.144 49.3594C134.139 49.2911 134.155 49.2147 134.191 49.1306L136.375 44.1918C136.423 44.0866 136.478 44.013 136.542 43.9709C136.611 43.9236 136.684 43.8999 136.764 43.8999C136.843 43.8999 136.915 43.9236 136.979 43.9709C137.047 44.013 137.103 44.0866 137.145 44.1918L139.336 49.1306C139.379 49.2147 139.395 49.2911 139.384 49.3594C139.379 49.4278 139.352 49.4804 139.305 49.5172C139.257 49.554 139.191 49.5724 139.107 49.5724C139.011 49.5724 138.935 49.5488 138.876 49.5014C138.818 49.4489 138.771 49.3752 138.733 49.2805L138.145 47.9314L138.463 48.0971H135.049L135.375 47.9314L134.795 49.2805C134.747 49.3804 134.697 49.4541 134.645 49.5014C134.591 49.5488 134.522 49.5724 134.438 49.5724ZM136.757 44.7125L135.478 47.7026L135.287 47.5527H138.225L138.05 47.7026L136.772 44.7125H136.757ZM147.368 49.5724C147.263 49.5724 147.18 49.5436 147.122 49.4857C147.069 49.4225 147.043 49.3384 147.043 49.2332V47.1662H146.106C145.936 47.1662 145.788 47.1819 145.661 47.2135C145.539 47.245 145.428 47.3029 145.328 47.3871C145.233 47.466 145.145 47.5816 145.065 47.7342L144.176 49.3673C144.135 49.4462 144.078 49.5014 144.01 49.533C143.94 49.5646 143.874 49.5751 143.811 49.5646C143.747 49.554 143.692 49.5278 143.645 49.4857C143.597 49.4383 143.568 49.3804 143.557 49.3121C143.547 49.2438 143.565 49.1649 143.613 49.0754L144.359 47.7026C144.48 47.4765 144.618 47.3108 144.772 47.2056C144.931 47.0951 145.113 47.0399 145.319 47.0399H145.526L145.478 47.1425C144.891 47.1425 144.433 47.0031 144.105 46.7243C143.777 46.4455 143.613 46.059 143.613 45.5646C143.613 45.2174 143.684 44.9255 143.827 44.6889C143.97 44.4522 144.182 44.2707 144.462 44.1445C144.743 44.0182 145.081 43.9551 145.478 43.9551H147.336C147.453 43.9551 147.54 43.9867 147.599 44.0498C147.662 44.1077 147.694 44.1945 147.694 44.3102V49.2332C147.694 49.3384 147.665 49.4225 147.606 49.4857C147.554 49.5436 147.474 49.5724 147.368 49.5724ZM145.573 46.6533H147.043V44.4916H145.573C145.14 44.4916 144.811 44.5836 144.589 44.7677C144.367 44.9465 144.255 45.2122 144.255 45.5646C144.255 45.9275 144.367 46.201 144.589 46.3851C144.811 46.5639 145.14 46.6533 145.573 46.6533ZM157.687 50.8111C157.592 50.8111 157.519 50.7848 157.465 50.7322C157.417 50.6796 157.394 50.6033 157.394 50.5034V49.2963C157.394 49.0806 157.503 48.9728 157.719 48.9728H158.236L157.846 49.0833C158.154 48.7467 158.381 48.2786 158.529 47.679C158.678 47.0741 158.751 46.3114 158.751 45.391V44.3102C158.751 44.1945 158.78 44.1077 158.839 44.0498C158.903 43.9867 158.993 43.9551 159.109 43.9551H162.11C162.222 43.9551 162.308 43.9867 162.372 44.0498C162.435 44.1077 162.467 44.1945 162.467 44.3102V49.2332L162.206 48.9728H162.928C163.034 48.9728 163.116 49.0017 163.174 49.0596C163.233 49.1122 163.261 49.1911 163.261 49.2963V50.5034C163.261 50.7085 163.163 50.8111 162.968 50.8111C162.868 50.8111 162.791 50.7848 162.737 50.7322C162.689 50.6796 162.666 50.6033 162.666 50.5034V49.5172H157.982V50.5034C157.982 50.7085 157.884 50.8111 157.687 50.8111ZM158.624 48.9728H161.809V44.4995H159.363V45.4384C159.363 46.2852 159.302 46.9926 159.18 47.5606C159.064 48.1287 158.878 48.5994 158.624 48.9728ZM167.902 49.5172C167.784 49.5172 167.695 49.4883 167.632 49.4304C167.573 49.3673 167.544 49.2779 167.544 49.1622V44.3102C167.544 44.1945 167.573 44.1077 167.632 44.0498C167.695 43.9867 167.784 43.9551 167.902 43.9551H170.855C170.944 43.9551 171.014 43.9788 171.062 44.0261C171.109 44.0735 171.132 44.1393 171.132 44.2234C171.132 44.3128 171.109 44.3812 171.062 44.4285C171.014 44.4758 170.944 44.4995 170.855 44.4995H168.179V46.4245H170.688C170.778 46.4245 170.847 46.4482 170.894 46.4955C170.942 46.5377 170.966 46.6033 170.966 46.6928C170.966 46.7822 170.942 46.8506 170.894 46.8979C170.847 46.9452 170.778 46.9689 170.688 46.9689H168.179V48.9728H170.855C170.944 48.9728 171.014 48.9965 171.062 49.0439C171.109 49.0912 171.132 49.157 171.132 49.2411C171.132 49.3305 171.109 49.3989 171.062 49.4462C171.014 49.4936 170.944 49.5172 170.855 49.5172H167.902ZM175.912 49.5724C175.806 49.5724 175.724 49.5436 175.667 49.4857C175.613 49.4225 175.587 49.3384 175.587 49.2332V44.2865C175.587 44.176 175.615 44.0945 175.674 44.0419C175.733 43.984 175.815 43.9551 175.921 43.9551H177.802C178.4 43.9551 178.861 44.1024 179.183 44.3969C179.506 44.6862 179.668 45.0964 179.668 45.6277C179.668 46.1536 179.506 46.5639 179.183 46.8585C178.861 47.153 178.4 47.3003 177.802 47.3003H176.238V49.2332C176.238 49.3384 176.212 49.4225 176.159 49.4857C176.105 49.5436 176.023 49.5724 175.912 49.5724ZM176.238 46.7559H177.723C178.151 46.7559 178.474 46.6612 178.691 46.4719C178.914 46.2773 179.025 45.9958 179.025 45.6277C179.025 45.2542 178.914 44.9729 178.691 44.7835C178.474 44.589 178.151 44.4916 177.723 44.4916H176.238V46.7559ZM184.382 49.5172C184.266 49.5172 184.176 49.4883 184.112 49.4304C184.055 49.3673 184.026 49.2779 184.026 49.1622V44.3102C184.026 44.1945 184.055 44.1077 184.112 44.0498C184.176 43.9867 184.266 43.9551 184.382 43.9551H187.336C187.426 43.9551 187.495 43.9788 187.542 44.0261C187.59 44.0735 187.614 44.1393 187.614 44.2234C187.614 44.3128 187.59 44.3812 187.542 44.4285C187.495 44.4758 187.426 44.4995 187.336 44.4995H184.661V46.4245H187.17C187.26 46.4245 187.329 46.4482 187.376 46.4955C187.424 46.5377 187.447 46.6033 187.447 46.6928C187.447 46.7822 187.424 46.8506 187.376 46.8979C187.329 46.9452 187.26 46.9689 187.17 46.9689H184.661V48.9728H187.336C187.426 48.9728 187.495 48.9965 187.542 49.0439C187.59 49.0912 187.614 49.157 187.614 49.2411C187.614 49.3305 187.59 49.3989 187.542 49.4462C187.495 49.4936 187.426 49.5172 187.336 49.5172H184.382ZM192.426 49.5172C192.31 49.5172 192.22 49.4883 192.156 49.4304C192.097 49.3673 192.068 49.2779 192.068 49.1622V44.3102C192.068 44.1945 192.097 44.1077 192.156 44.0498C192.22 43.9867 192.31 43.9551 192.426 43.9551H194.307C194.694 43.9551 195.019 44.013 195.284 44.1287C195.554 44.2392 195.761 44.4022 195.904 44.6178C196.047 44.8335 196.117 45.0964 196.117 45.4068C196.117 45.7539 196.015 46.0432 195.808 46.2746C195.607 46.5061 195.332 46.6586 194.983 46.7322V46.6218C195.38 46.6691 195.689 46.8111 195.911 47.0478C196.139 47.2845 196.253 47.5974 196.253 47.9867C196.253 48.481 196.092 48.8597 195.768 49.1227C195.446 49.3858 194.99 49.5172 194.402 49.5172H192.426ZM192.703 48.9965H194.339C194.763 48.9965 195.08 48.9124 195.292 48.7441C195.504 48.5757 195.609 48.3207 195.609 47.9788C195.609 47.6316 195.504 47.3765 195.292 47.2135C195.08 47.0451 194.763 46.961 194.339 46.961H192.703V48.9965ZM192.703 46.4403H194.212C194.625 46.4403 194.937 46.3562 195.149 46.1879C195.366 46.0195 195.475 45.7776 195.475 45.462C195.475 45.1359 195.366 44.8913 195.149 44.7283C194.937 44.56 194.625 44.4758 194.212 44.4758H192.703V46.4403ZM204.46 49.5724C204.355 49.5724 204.273 49.5436 204.215 49.4857C204.162 49.4225 204.135 49.3384 204.135 49.2332V47.1662H203.198C203.029 47.1662 202.881 47.1819 202.754 47.2135C202.632 47.245 202.521 47.3029 202.42 47.3871C202.325 47.466 202.237 47.5816 202.158 47.7342L201.269 49.3673C201.227 49.4462 201.171 49.5014 201.102 49.533C201.034 49.5646 200.967 49.5751 200.903 49.5646C200.84 49.554 200.785 49.5278 200.737 49.4857C200.69 49.4383 200.66 49.3804 200.649 49.3121C200.639 49.2438 200.658 49.1649 200.705 49.0754L201.452 47.7026C201.574 47.4765 201.711 47.3108 201.865 47.2056C202.023 47.0951 202.205 47.0399 202.412 47.0399H202.618L202.571 47.1425C201.983 47.1425 201.526 47.0031 201.198 46.7243C200.869 46.4455 200.705 46.059 200.705 45.5646C200.705 45.2174 200.776 44.9255 200.919 44.6889C201.062 44.4522 201.275 44.2707 201.554 44.1445C201.835 44.0182 202.174 43.9551 202.571 43.9551H204.429C204.546 43.9551 204.633 43.9867 204.691 44.0498C204.755 44.1077 204.786 44.1945 204.786 44.3102V49.2332C204.786 49.3384 204.757 49.4225 204.699 49.4857C204.646 49.5436 204.567 49.5724 204.46 49.5724ZM202.666 46.6533H204.135V44.4916H202.666C202.232 44.4916 201.904 44.5836 201.681 44.7677C201.459 44.9465 201.348 45.2122 201.348 45.5646C201.348 45.9275 201.459 46.201 201.681 46.3851C201.904 46.5639 202.232 46.6533 202.666 46.6533ZM209.907 49.5724C209.801 49.5724 209.719 49.5436 209.66 49.4857C209.608 49.4225 209.581 49.3384 209.581 49.2332V44.2392C209.581 44.1287 209.608 44.0446 209.66 43.9867C209.719 43.9288 209.801 43.8999 209.907 43.8999C210.013 43.8999 210.093 43.9288 210.145 43.9867C210.204 44.0446 210.232 44.1287 210.232 44.2392V46.4166H213.591V44.2392C213.591 44.1287 213.618 44.0446 213.671 43.9867C213.729 43.9288 213.811 43.8999 213.916 43.8999C214.022 43.8999 214.102 43.9288 214.154 43.9867C214.213 44.0446 214.242 44.1287 214.242 44.2392V49.2332C214.242 49.3384 214.213 49.4225 214.154 49.4857C214.102 49.5436 214.022 49.5724 213.916 49.5724C213.811 49.5724 213.729 49.5436 213.671 49.4857C213.618 49.4225 213.591 49.3384 213.591 49.2332V46.9768H210.232V49.2332C210.232 49.3384 210.206 49.4225 210.153 49.4857C210.1 49.5436 210.018 49.5724 209.907 49.5724ZM219.362 49.5724C219.255 49.5724 219.173 49.5436 219.115 49.4857C219.062 49.4225 219.035 49.3384 219.035 49.2332V44.2392C219.035 44.1287 219.062 44.0446 219.115 43.9867C219.173 43.9288 219.255 43.8999 219.362 43.8999C219.467 43.8999 219.546 43.9288 219.6 43.9867C219.657 44.0446 219.687 44.1287 219.687 44.2392V46.4166H223.046V44.2392C223.046 44.1287 223.071 44.0446 223.125 43.9867C223.183 43.9288 223.266 43.8999 223.371 43.8999C223.477 43.8999 223.556 43.9288 223.609 43.9867C223.667 44.0446 223.697 44.1287 223.697 44.2392V49.2332C223.697 49.3384 223.667 49.4225 223.609 49.4857C223.556 49.5436 223.477 49.5724 223.371 49.5724C223.266 49.5724 223.183 49.5436 223.125 49.4857C223.071 49.4225 223.046 49.3384 223.046 49.2332V46.9768H219.687V49.2332C219.687 49.3384 219.661 49.4225 219.607 49.4857C219.555 49.5436 219.473 49.5724 219.362 49.5724ZM228.848 49.5172C228.731 49.5172 228.641 49.4883 228.578 49.4304C228.519 49.3673 228.49 49.2779 228.49 49.1622V44.2392C228.49 44.1287 228.517 44.0446 228.569 43.9867C228.628 43.9288 228.71 43.8999 228.816 43.8999C228.921 43.8999 229.001 43.9288 229.054 43.9867C229.112 44.0446 229.141 44.1287 229.141 44.2392V46.4088H230.586C230.978 46.4088 231.312 46.4667 231.587 46.5823C231.861 46.698 232.071 46.8716 232.214 47.103C232.362 47.3292 232.437 47.6132 232.437 47.9551C232.437 48.4652 232.274 48.8545 231.952 49.1227C231.629 49.3858 231.174 49.5172 230.586 49.5172H228.848ZM229.141 48.9728H230.523C230.946 48.9728 231.264 48.8913 231.475 48.7283C231.687 48.5599 231.793 48.3022 231.793 47.9551C231.793 47.6132 231.687 47.3607 231.475 47.1977C231.264 47.0347 230.946 46.9531 230.523 46.9531H229.141V48.9728ZM233.564 49.5724C233.458 49.5724 233.376 49.5436 233.317 49.4857C233.265 49.4225 233.238 49.3384 233.238 49.2332V44.2392C233.238 44.1287 233.265 44.0446 233.317 43.9867C233.376 43.9288 233.458 43.8999 233.564 43.8999C233.669 43.8999 233.749 43.9288 233.802 43.9867C233.86 44.0446 233.889 44.1287 233.889 44.2392V49.2332C233.889 49.3384 233.862 49.4225 233.81 49.4857C233.757 49.5436 233.675 49.5724 233.564 49.5724ZM238.609 49.5724C238.52 49.5724 238.445 49.5488 238.387 49.5014C238.334 49.4541 238.302 49.3962 238.291 49.3279C238.287 49.2595 238.313 49.1911 238.371 49.1227L240.292 46.5508V46.7953L238.482 44.3654C238.425 44.2865 238.398 44.2128 238.403 44.1445C238.409 44.0761 238.438 44.0182 238.491 43.9709C238.549 43.9236 238.618 43.8999 238.697 43.8999C238.772 43.8999 238.835 43.9157 238.888 43.9472C238.94 43.9788 238.996 44.034 239.054 44.1129L240.682 46.3299H240.476L242.095 44.1129C242.148 44.034 242.202 43.9788 242.254 43.9472C242.307 43.9157 242.37 43.8999 242.445 43.8999C242.529 43.8999 242.599 43.9236 242.651 43.9709C242.71 44.013 242.741 44.0708 242.746 44.1445C242.751 44.2128 242.726 44.2865 242.667 44.3654L240.857 46.7953V46.5508L242.778 49.1227C242.831 49.1911 242.853 49.2595 242.842 49.3279C242.837 49.3962 242.807 49.4541 242.754 49.5014C242.701 49.5488 242.63 49.5724 242.54 49.5724C242.471 49.5724 242.408 49.554 242.349 49.5172C242.297 49.4857 242.241 49.4331 242.182 49.3594L240.444 47.0005H240.698L238.958 49.3594C238.906 49.4331 238.851 49.4857 238.792 49.5172C238.734 49.554 238.673 49.5724 238.609 49.5724ZM252.999 49.5724C252.956 49.5724 252.917 49.5646 252.879 49.5488C252.847 49.5382 252.818 49.5172 252.792 49.4857C252.77 49.4541 252.752 49.4199 252.736 49.3831C252.726 49.341 252.72 49.2911 252.72 49.2332V44.2155C252.72 44.1156 252.747 44.0392 252.799 43.9867C252.853 43.9288 252.929 43.8999 253.03 43.8999C253.126 43.8999 253.199 43.9288 253.253 43.9867C253.305 44.0392 253.332 44.1156 253.332 44.2155V48.6809H253.157L256.603 44.0971C256.651 44.0235 256.699 43.9736 256.746 43.9472C256.799 43.9157 256.865 43.8999 256.944 43.8999C257.003 43.8999 257.05 43.913 257.087 43.9394C257.125 43.9603 257.153 43.9946 257.175 44.0419C257.196 44.0893 257.207 44.1471 257.207 44.2155V49.249C257.207 49.3542 257.18 49.4357 257.127 49.4936C257.08 49.5461 257.008 49.5724 256.912 49.5724C256.812 49.5724 256.735 49.5461 256.683 49.4936C256.629 49.4357 256.603 49.3542 256.603 49.249V44.7914H256.778L253.332 49.3752C253.278 49.4435 253.231 49.4936 253.189 49.5251C253.146 49.5567 253.083 49.5724 252.999 49.5724ZM263.798 49.5882C263.38 49.5882 262.997 49.5357 262.647 49.4304C262.303 49.3252 262.015 49.178 261.781 48.9886C261.718 48.9413 261.676 48.8887 261.654 48.8308C261.638 48.7729 261.636 48.7152 261.647 48.6573C261.663 48.5994 261.692 48.552 261.734 48.5153C261.776 48.4785 261.826 48.4574 261.885 48.4521C261.949 48.4469 262.015 48.4679 262.083 48.5153C262.237 48.6257 262.398 48.7177 262.568 48.7914C262.743 48.8651 262.928 48.9203 263.124 48.9571C263.325 48.9938 263.537 49.0123 263.759 49.0123C264.103 49.0123 264.383 48.9728 264.6 48.8939C264.823 48.8151 264.986 48.6994 265.093 48.5468C265.199 48.389 265.252 48.1945 265.252 47.963C265.252 47.6211 265.145 47.3713 264.934 47.2135C264.728 47.0505 264.41 46.9689 263.981 46.9689H262.854C262.763 46.9689 262.692 46.9452 262.639 46.8979C262.586 46.8506 262.559 46.7848 262.559 46.7007C262.559 46.6112 262.586 46.5456 262.639 46.5034C262.692 46.4561 262.763 46.4324 262.854 46.4324H263.854C264.272 46.4324 264.587 46.3509 264.798 46.1879C265.011 46.0248 265.116 45.7855 265.116 45.4699C265.116 45.2596 265.066 45.0781 264.966 44.9255C264.866 44.773 264.714 44.6573 264.513 44.5784C264.317 44.4995 264.068 44.4601 263.766 44.4601C263.486 44.4601 263.214 44.4968 262.949 44.5705C262.69 44.6442 262.448 44.7625 262.226 44.9255C262.157 44.9677 262.091 44.9887 262.028 44.9887C261.969 44.9834 261.919 44.9623 261.877 44.9255C261.835 44.8834 261.806 44.8335 261.79 44.7756C261.779 44.7177 261.785 44.66 261.806 44.6021C261.826 44.5442 261.869 44.4943 261.933 44.4522C262.187 44.2576 262.478 44.1156 262.806 44.0261C263.14 43.9315 263.475 43.8841 263.814 43.8841C264.254 43.8841 264.616 43.9472 264.902 44.0735C265.193 44.1997 265.41 44.3759 265.553 44.6021C265.701 44.8282 265.776 45.0964 265.776 45.4068C265.776 45.7539 265.672 46.0432 265.465 46.2746C265.265 46.5061 264.989 46.6586 264.64 46.7322V46.6218C265.032 46.6691 265.342 46.8111 265.569 47.0478C265.796 47.2845 265.91 47.5974 265.91 47.9867C265.91 48.318 265.834 48.6047 265.68 48.8466C265.526 49.0833 265.294 49.2674 264.982 49.3989C264.675 49.5251 264.28 49.5882 263.798 49.5882ZM270.259 50.8111C270.163 50.8111 270.089 50.7848 270.036 50.7322C269.989 50.6796 269.964 50.6033 269.964 50.5034V49.2963C269.964 49.0806 270.073 48.9728 270.29 48.9728H270.806L270.417 49.0833C270.724 48.7467 270.951 48.2786 271.1 47.679C271.248 47.0741 271.322 46.3114 271.322 45.391V44.3102C271.322 44.1945 271.352 44.1077 271.409 44.0498C271.473 43.9867 271.563 43.9551 271.679 43.9551H274.68C274.792 43.9551 274.88 43.9867 274.943 44.0498C275.007 44.1077 275.038 44.1945 275.038 44.3102V49.2332L274.776 48.9728H275.499C275.604 48.9728 275.687 49.0017 275.744 49.0596C275.803 49.1122 275.832 49.1911 275.832 49.2963V50.5034C275.832 50.7085 275.735 50.8111 275.538 50.8111C275.438 50.8111 275.361 50.7848 275.308 50.7322C275.261 50.6796 275.236 50.6033 275.236 50.5034V49.5172H270.552V50.5034C270.552 50.7085 270.454 50.8111 270.259 50.8111ZM271.195 48.9728H274.379V44.4995H271.933V45.4384C271.933 46.2852 271.872 46.9926 271.751 47.5606C271.634 48.1287 271.45 48.5994 271.195 48.9728ZM280.472 49.5172C280.354 49.5172 280.265 49.4883 280.202 49.4304C280.143 49.3673 280.114 49.2779 280.114 49.1622V44.3102C280.114 44.1945 280.143 44.1077 280.202 44.0498C280.265 43.9867 280.354 43.9551 280.472 43.9551H283.425C283.514 43.9551 283.584 43.9788 283.632 44.0261C283.679 44.0735 283.703 44.1393 283.703 44.2234C283.703 44.3128 283.679 44.3812 283.632 44.4285C283.584 44.4758 283.514 44.4995 283.425 44.4995H280.749V46.4245H283.258C283.348 46.4245 283.417 46.4482 283.464 46.4955C283.512 46.5377 283.536 46.6033 283.536 46.6928C283.536 46.7822 283.512 46.8506 283.464 46.8979C283.417 46.9452 283.348 46.9689 283.258 46.9689H280.749V48.9728H283.425C283.514 48.9728 283.584 48.9965 283.632 49.0439C283.679 49.0912 283.703 49.157 283.703 49.2411C283.703 49.3305 283.679 49.3989 283.632 49.4462C283.584 49.4936 283.514 49.5172 283.425 49.5172H280.472ZM292.334 49.5724C292.228 49.5724 292.146 49.5436 292.087 49.4857C292.03 49.4225 292 49.3384 292 49.2332V44.5153H289.555V45.7934C289.555 46.3246 289.523 46.7927 289.46 47.1977C289.401 47.5974 289.312 47.9472 289.19 48.247C289.074 48.5416 288.925 48.7914 288.745 48.9965C288.57 49.2016 288.366 49.3752 288.133 49.5172C288.049 49.5751 287.967 49.5961 287.887 49.5803C287.808 49.5646 287.742 49.5146 287.688 49.4304C287.636 49.3463 287.62 49.2674 287.641 49.1938C287.668 49.1201 287.724 49.057 287.808 49.0044C287.988 48.8939 288.146 48.7546 288.284 48.5863C288.427 48.4179 288.546 48.2076 288.641 47.9551C288.743 47.6974 288.82 47.3792 288.872 47.0005C288.925 46.6218 288.951 46.1642 288.951 45.6277V44.3102C288.951 44.1945 288.981 44.1077 289.038 44.0498C289.102 43.9867 289.192 43.9551 289.308 43.9551H292.302C292.413 43.9551 292.5 43.9867 292.563 44.0498C292.627 44.1077 292.659 44.1945 292.659 44.3102V49.2332C292.659 49.3384 292.631 49.4225 292.572 49.4857C292.513 49.5436 292.434 49.5724 292.334 49.5724ZM297.734 49.5724C297.693 49.5724 297.652 49.5646 297.616 49.5488C297.584 49.5382 297.555 49.5172 297.528 49.4857C297.507 49.4541 297.489 49.4199 297.473 49.3831C297.462 49.341 297.457 49.2911 297.457 49.2332V44.2155C297.457 44.1156 297.482 44.0392 297.536 43.9867C297.589 43.9288 297.666 43.8999 297.766 43.8999C297.861 43.8999 297.936 43.9288 297.988 43.9867C298.042 44.0392 298.068 44.1156 298.068 44.2155V48.6809H297.893L301.339 44.0971C301.386 44.0235 301.434 43.9736 301.482 43.9472C301.535 43.9157 301.601 43.8999 301.681 43.8999C301.738 43.8999 301.786 43.913 301.824 43.9394C301.86 43.9603 301.89 43.9946 301.91 44.0419C301.932 44.0893 301.942 44.1471 301.942 44.2155V49.249C301.942 49.3542 301.917 49.4357 301.863 49.4936C301.815 49.5461 301.744 49.5724 301.649 49.5724C301.548 49.5724 301.472 49.5461 301.418 49.4936C301.366 49.4357 301.339 49.3542 301.339 49.249V44.7914H301.514L298.068 49.3752C298.015 49.4435 297.967 49.4936 297.925 49.5251C297.883 49.5567 297.82 49.5724 297.734 49.5724ZM307.026 49.5724C306.983 49.5724 306.944 49.5646 306.907 49.5488C306.875 49.5382 306.845 49.5172 306.82 49.4857C306.798 49.4541 306.779 49.4199 306.764 49.3831C306.754 49.341 306.748 49.2911 306.748 49.2332V44.2155C306.748 44.1156 306.775 44.0392 306.827 43.9867C306.881 43.9288 306.957 43.8999 307.058 43.8999C307.153 43.8999 307.227 43.9288 307.28 43.9867C307.333 44.0392 307.36 44.1156 307.36 44.2155V48.6809H307.185L310.631 44.0971C310.679 44.0235 310.726 43.9736 310.774 43.9472C310.826 43.9157 310.892 43.8999 310.972 43.8999C311.03 43.8999 311.078 43.913 311.115 43.9394C311.152 43.9603 311.181 43.9946 311.203 44.0419C311.223 44.0893 311.234 44.1471 311.234 44.2155V49.249C311.234 49.3542 311.207 49.4357 311.155 49.4936C311.107 49.5461 311.035 49.5724 310.94 49.5724C310.84 49.5724 310.763 49.5461 310.71 49.4936C310.657 49.4357 310.631 49.3542 310.631 49.249V44.7914H310.806L307.36 49.3752C307.306 49.4435 307.258 49.4936 307.217 49.5251C307.174 49.5567 307.111 49.5724 307.026 49.5724ZM308.995 43.5212C308.678 43.5212 308.392 43.4502 308.138 43.3082C307.884 43.1662 307.691 42.9505 307.558 42.6613C307.526 42.5824 307.521 42.5192 307.542 42.4719C307.564 42.4193 307.603 42.3824 307.661 42.3615C307.719 42.3405 307.773 42.3405 307.82 42.3615C307.868 42.3824 307.907 42.4272 307.939 42.4956C308.04 42.6955 308.177 42.8479 308.352 42.9532C308.526 43.0584 308.741 43.111 308.995 43.111C309.254 43.111 309.469 43.0584 309.638 42.9532C309.812 42.8479 309.951 42.6955 310.051 42.4956C310.089 42.4272 310.128 42.3824 310.17 42.3615C310.218 42.3405 310.271 42.3405 310.329 42.3615C310.393 42.3824 310.432 42.4193 310.448 42.4719C310.47 42.5192 310.461 42.5824 310.424 42.6613C310.286 42.9505 310.091 43.1662 309.837 43.3082C309.583 43.4502 309.302 43.5212 308.995 43.5212Z" fill="black"/>
<path d="M26.7346 58.0176C40.6994 58.0176 52.02 46.7687 52.02 32.8926C52.02 19.0164 40.6994 7.76758 26.7346 7.76758C12.7699 7.76758 1.44922 19.0164 1.44922 32.8926C1.44922 46.7687 12.7699 58.0176 26.7346 58.0176Z" stroke="black"/>
<path d="M6.85194 47.1206L7.07756 47.1173C7.31807 47.1138 7.52732 47.0212 7.70517 46.8393C7.88303 46.6574 8.03034 46.4461 8.14712 46.2054C8.29394 45.9643 8.39557 45.7088 8.45176 45.4391C8.50747 45.1394 8.53361 44.8702 8.53019 44.6312L8.17973 20.7468C8.17668 20.5376 8.14309 20.299 8.07908 20.031C8.01495 19.763 7.90599 19.5107 7.75208 19.2739C7.62822 19.0366 7.47504 18.8446 7.29242 18.6978C7.10932 18.5212 6.91253 18.4344 6.70194 18.4375L6.47633 18.4407L6.46985 17.9926L12.876 17.8998L12.8826 18.3479L12.6571 18.3512C12.4164 18.3547 12.2072 18.4474 12.0293 18.6292C11.8511 18.7812 11.6885 18.9778 11.5417 19.219C11.4248 19.4597 11.3233 19.7152 11.2371 19.9852C11.1809 20.2551 11.1542 20.4944 11.1573 20.7036L11.2934 29.9795L21.6081 19.4766C21.8452 19.234 21.9612 18.9485 21.9565 18.6199C21.9526 18.351 21.8303 18.2184 21.5897 18.2218L21.5831 17.7738L26.4555 17.7031L26.462 18.1512C25.8609 18.1898 25.3221 18.3769 24.8457 18.7125C24.3994 19.0476 23.9096 19.488 23.376 20.0336L12.8398 30.8088C14.7956 30.8402 16.3807 31.2355 17.5952 31.9949C18.8096 32.7541 19.7728 33.8159 20.4847 35.18L24.1539 42.2983C24.3711 42.7434 24.649 43.2323 24.9877 43.7653C25.356 44.2679 25.4081 44.3569 25.8361 44.8287C26.2184 45.2501 26.3574 44.1488 26.3936 44.223C26.5865 44.6166 26.4376 44.82 26.5913 45.0419L26.4098 55.5774C26.2508 54.6086 27.0503 53.1029 25.1986 49.9176C25.1986 49.9176 23.8387 47.0837 21.9948 44.4361C21.6561 43.9032 21.3275 43.4149 21.0489 42.881L17.2888 35.7194C16.7012 34.6223 15.8919 33.7974 14.8609 33.2446C13.8597 32.6615 12.6819 32.3499 11.3276 32.3097L11.5076 44.588C11.5112 44.827 11.545 45.0805 11.609 45.3485C11.6731 45.6165 11.7673 45.884 11.8916 46.1512C12.0154 46.3885 12.1688 46.5954 12.3519 46.772C12.5346 46.9188 12.7313 47.0055 12.9424 47.0324L13.2582 47.0278L13.2648 47.4759L6.85854 47.5687H6.335L6.06055 47.1203L6.85194 47.1206Z" fill="black"/>
<path d="M34.2491 11.4111L39.1682 24.884H29.3301L34.2491 11.4111Z" fill="#9F8260"/>
<path d="M43.7748 40.2996C47.7213 40.2996 50.9207 36.8489 50.9207 32.5922C50.9207 28.3355 47.7213 24.8848 43.7748 24.8848C39.8282 24.8848 36.6289 28.3355 36.6289 32.5922C36.6289 36.8489 39.8282 40.2996 43.7748 40.2996Z" fill="#9F8260"/>
<path d="M42.3746 24.6583V27.6729H42.1322C42.116 27.4639 42.0594 27.2307 41.9626 26.9735C41.8656 26.7163 41.7282 26.4752 41.5504 26.25C41.3888 26.041 41.195 25.8642 40.9687 25.7195C40.7425 25.5748 40.492 25.5024 40.2173 25.5024H29.0428C28.7681 25.5024 28.5177 25.5748 28.2915 25.7195C28.0653 25.8802 27.8632 26.0651 27.6855 26.2742C27.5239 26.4992 27.3865 26.7404 27.2733 26.9977C27.1765 27.2549 27.1199 27.4799 27.1037 27.6729H26.8613V24.6583H27.9278C28.445 24.6583 28.8085 24.3609 29.0186 23.766L34.5938 9.22363L40.2173 23.6937C40.3304 23.9349 40.4839 24.1599 40.6778 24.3689C40.8718 24.5619 41.098 24.6583 41.3566 24.6583H42.3746ZM29.552 24.6583H38.8841L34.2059 12.6723L29.552 24.6583Z" fill="black"/>
<path d="M44.0085 24.5176C45.2676 24.5176 46.3978 24.7425 47.3986 25.1923C48.3995 25.626 49.2471 26.2204 49.9412 26.9755C50.6515 27.7144 51.1924 28.5819 51.5636 29.5779C51.951 30.5579 52.1448 31.586 52.1448 32.6623C52.1448 33.8671 51.9188 34.9756 51.4667 35.9877C51.0309 36.9997 50.4255 37.8672 49.6506 38.5901C48.8757 39.313 47.9717 39.8834 46.9385 40.3011C45.9215 40.7027 44.8318 40.9034 43.6695 40.9034C42.4265 40.9034 41.3045 40.6785 40.3036 40.2287C39.3188 39.7789 38.4794 39.1845 37.7852 38.4456C37.1072 37.7066 36.5825 36.8552 36.2112 35.8913C35.84 34.9275 35.6543 33.9234 35.6543 32.8792C35.6543 31.851 35.84 30.839 36.2112 29.843C36.5825 28.8309 37.1233 27.9313 37.8336 27.1442C38.5602 26.3569 39.4399 25.7224 40.4731 25.2405C41.5062 24.7585 42.6847 24.5176 44.0085 24.5176ZM43.9843 40.06C45.0658 40.0118 46.0103 39.7709 46.8175 39.3372C47.6408 38.8874 48.3268 38.325 48.8757 37.6504C49.4246 36.9595 49.8282 36.2046 50.0865 35.3853C50.3609 34.566 50.4982 33.7547 50.4982 32.9514C50.4982 32.0679 50.3367 31.1763 50.0138 30.2768C49.691 29.3771 49.2308 28.5659 48.6335 27.8429C48.0363 27.104 47.3179 26.5096 46.4784 26.0598C45.6551 25.5939 44.7269 25.361 43.6937 25.361C42.6928 25.361 41.7968 25.5858 41.0059 26.0356C40.2148 26.4694 39.5368 27.0317 38.9718 27.7224C38.4229 28.4133 38.0032 29.1844 37.7126 30.0357C37.422 30.8872 37.2767 31.7225 37.2767 32.5418C37.2767 33.4254 37.4463 34.3169 37.7852 35.2166C38.1242 36.1001 38.5924 36.9034 39.1897 37.6263C39.7871 38.3492 40.4893 38.9356 41.2964 39.3854C42.1198 39.8352 43.0156 40.06 43.9843 40.06Z" fill="black"/>
<path d="M40.9041 50.718H41.0247C41.1372 50.718 41.2416 50.6698 41.3381 50.5736C41.4345 50.4773 41.5149 50.3651 41.5791 50.2368C41.6595 50.1085 41.7158 49.9722 41.748 49.8278C41.7801 49.6674 41.7961 49.5231 41.7961 49.3948V36.7401L35.5766 51.2232L29.6706 37.4859V49.3948C29.6706 49.5231 29.6866 49.6674 29.7187 49.8278C29.7509 49.9722 29.7991 50.1085 29.8635 50.2368C29.9437 50.3651 30.0321 50.4773 30.1285 50.5736C30.225 50.6698 30.3375 50.718 30.466 50.718H30.5866V50.9586H27.959V50.718H28.0795C28.192 50.718 28.2965 50.6698 28.3929 50.5736C28.4894 50.4773 28.5697 50.3651 28.634 50.2368C28.6982 50.1085 28.7465 49.9722 28.7786 49.8278C28.8107 49.6674 28.8269 49.5231 28.8269 49.3948V36.5717C28.8269 36.4594 28.8107 36.3311 28.7786 36.1868C28.7465 36.0424 28.6982 35.906 28.634 35.7778C28.5697 35.6495 28.4894 35.5452 28.3929 35.465C28.2965 35.3688 28.192 35.3206 28.0795 35.3206H27.959V35.0801H30.4179L36.0106 48.24L41.6033 35.0801H44.3273V35.3206H44.2067C44.0782 35.3206 43.9657 35.3688 43.8692 35.465C43.7729 35.5452 43.6844 35.6495 43.6042 35.7778C43.5398 35.906 43.4917 36.0424 43.4594 36.1868C43.4273 36.3311 43.4113 36.4594 43.4113 36.5717V49.3948C43.4113 49.5231 43.4273 49.6674 43.4594 49.8278C43.4917 49.9722 43.5398 50.1085 43.6042 50.2368C43.6844 50.3651 43.7729 50.4773 43.8692 50.5736C43.9657 50.6698 44.0782 50.718 44.2067 50.718H44.3273V50.9586H40.9041V50.718Z" fill="black"/>
<path d="M26.7344 58.183L26.7371 7.52637" stroke="black"/>
</svg>
