<svg width="50" height="50" viewBox="0 0 50 50" fill="none" xmlns="http://www.w3.org/2000/svg">
<g clip-path="url(#clip0_135_2486)">
<path d="M24.9994 49.0379C38.2755 49.0379 49.0379 38.2755 49.0379 24.9994C49.0379 11.7233 38.2755 0.960938 24.9994 0.960938C11.7233 0.960938 0.960938 11.7233 0.960938 24.9994C0.960938 38.2755 11.7233 49.0379 24.9994 49.0379Z" stroke="#292725"/>
<path d="M28.2013 14.5586L36.075 36.0802L34.5003 39.2297L26.1016 16.6582L28.2013 14.5586Z" fill="#9F8260"/>
<path d="M14.0312 36.082L21.9051 14.5605L24.5297 16.1353L15.6061 39.2312L14.0312 36.082Z" fill="#9F8260"/>
<path d="M25.0519 16.135C26.7913 16.135 28.2014 14.7249 28.2014 12.9855C28.2014 11.246 26.7913 9.83594 25.0519 9.83594C23.3124 9.83594 21.9023 11.246 21.9023 12.9855C21.9023 14.7249 23.3124 16.135 25.0519 16.135Z" fill="#9F8260"/>
<path d="M25.053 16.1783C26.8169 16.1783 28.2467 14.7485 28.2467 12.9847C28.2467 11.2209 26.8169 9.79102 25.053 9.79102C23.2892 9.79102 21.8594 11.2209 21.8594 12.9847C21.8594 14.7485 23.2892 16.1783 25.053 16.1783Z" stroke="#292725"/>
<path d="M25.6665 7.21094H24.4401C23.909 7.21094 23.4785 7.64143 23.4785 8.17248V9.39892C23.4785 9.92996 23.909 10.3605 24.4401 10.3605H25.6665C26.1975 10.3605 26.628 9.92996 26.628 9.39892V8.17248C26.628 7.64143 26.1975 7.21094 25.6665 7.21094Z" fill="#292725"/>
<path d="M21.9051 14.5586L14.0312 36.0802L15.0812 38.7048V41.3295H15.6061V38.7048L24.5297 16.1333H25.5795L34.5032 38.7048V41.3295H35.0281V38.7048L36.0779 36.0802L28.2041 14.5586" stroke="#292725" stroke-linecap="round" stroke-linejoin="round"/>
<path d="M25.6665 22.4336H24.4401C23.909 22.4336 23.4785 22.8641 23.4785 23.3951V28.8209C23.4785 29.352 23.909 29.7825 24.4401 29.7825H25.6665C26.1975 29.7825 26.628 29.352 26.628 28.8209V23.3951C26.628 22.8641 26.1975 22.4336 25.6665 22.4336Z" fill="#292725"/>
<path d="M20.8535 25.582H28.7274L29.2523 26.1069H20.8535" stroke="#292725" stroke-linecap="round" stroke-linejoin="round"/>
<path d="M32.4023 25.582H37.1266V26.1069H32.9272L32.4023 25.582Z" stroke="#292725" stroke-linecap="round" stroke-linejoin="round"/>
<path d="M12.9805 25.582H17.7047L17.1798 26.1069H12.9805V25.582Z" stroke="#292725" stroke-linecap="round" stroke-linejoin="round"/>
</g>
<defs>
<clipPath id="clip0_135_2486">
<rect width="50" height="50" fill="white"/>
</clipPath>
</defs>
</svg>
