<svg width="50" height="50" viewBox="0 0 50 50" fill="none" xmlns="http://www.w3.org/2000/svg">
<g clip-path="url(#clip0_135_2458)">
<path d="M24.9994 49.0379C38.2755 49.0379 49.0379 38.2755 49.0379 24.9994C49.0379 11.7233 38.2755 0.960938 24.9994 0.960938C11.7233 0.960938 0.960938 11.7233 0.960938 24.9994C0.960938 38.2755 11.7233 49.0379 24.9994 49.0379Z" stroke="#292725"/>
<path d="M26.4419 23.5566L27.4034 24.0377L27.8842 25.9607L29.3265 26.9222L30.288 26.9219L35.0957 31.7294L37.9803 34.6146L38.9419 36.537L38.4611 37.9797L37.0188 39.422L35.5765 39.9028L34.1342 38.9413L33.1726 37.9797L25.9611 30.7682V29.8066L24.9995 28.8451L23.0765 28.3643L22.5957 27.4028L26.4419 23.5566Z" fill="#9F8260"/>
<path d="M23.5566 25.9618L23.0759 25.4811L15.3836 17.7888H13.4605L11.0566 13.4618L12.4989 12.0195L16.8259 14.4234V16.3465L24.5182 24.0388L24.9989 24.5195M23.5566 25.9618L24.9989 24.5195M23.5566 25.9618L22.5951 26.9234C22.1287 28.1696 22.5627 28.6378 24.9989 28.8465L25.9605 29.808C26.024 30.7916 26.1024 31.2607 26.4413 31.7311L34.1336 39.4234C35.0656 39.9722 36.0948 40.1138 37.4989 39.4234L38.4605 38.4618C39.1663 36.5282 38.9142 35.7595 37.9797 34.6157L31.2489 27.8849C30.684 27.2741 30.4011 26.9446 29.8066 26.9234H28.8451L27.8836 25.9618C27.5948 23.8498 27.3455 22.8953 25.9605 23.558L24.9989 24.5195" stroke="#292725" stroke-linejoin="round"/>
<path d="M28.8516 29.8066L35.864 36.819" stroke="#292725" stroke-linecap="round"/>
<path d="M19.2299 33.6535L17.4816 31.7305L14.4222 32.2112L13.9414 33.6535V35.0959L15.8645 37.0189L18.7491 36.5382L19.2299 33.6535Z" fill="#9F8260"/>
<path d="M25 22.1157L26.9231 20.1926C24.6588 14.5628 27.8846 12.0195 34.1346 12.0195L30.7692 15.3849C30.3805 15.8007 30.5022 16.157 31.25 16.8272L34.1346 19.7118C34.6101 20.1151 34.9234 20.1607 35.5769 19.7118L38.9423 16.8272C38.0463 24.2853 36.1906 25.7735 30.7692 24.0388L29.8077 25.0003L29.3269 25.4811" stroke="#292725" stroke-linecap="round" stroke-linejoin="round"/>
<path d="M21.1539 25.9609L17.7886 29.3263C11.7607 28.2654 8.55188 34.6914 12.5001 38.4609C16.4483 42.2305 22.2111 39.1081 21.6347 33.1725L24.0386 30.7686" stroke="#292725" stroke-linecap="round" stroke-linejoin="round"/>
<path d="M19.2299 33.6535L17.3068 31.7305L14.4222 32.2112L13.9414 35.0959L15.8645 37.0189L18.7491 36.5382L19.2299 33.6535Z" stroke="#292725" stroke-linecap="round" stroke-linejoin="round"/>
</g>
<defs>
<clipPath id="clip0_135_2458">
<rect width="50" height="50" fill="white"/>
</clipPath>
</defs>
</svg>
