<svg width="50" height="50" viewBox="0 0 50 50" fill="none" xmlns="http://www.w3.org/2000/svg">
<path d="M24.9994 49.0388C38.2755 49.0388 49.0379 38.2765 49.0379 25.0004C49.0379 11.7243 38.2755 0.961914 24.9994 0.961914C11.7233 0.961914 0.960938 11.7243 0.960938 25.0004C0.960938 38.2765 11.7233 49.0388 24.9994 49.0388Z" stroke="#292725"/>
<path d="M25.6212 16.007C25.4335 16.1948 25.4335 16.4992 25.6212 16.687L28.6809 19.7465C28.8686 19.9343 29.1731 19.9343 29.3608 19.7465C29.5485 19.5588 29.5485 19.2544 29.3608 19.0666L26.6411 16.347L29.3608 13.6274C29.5485 13.4396 29.5485 13.1352 29.3608 12.9475C29.1731 12.7597 28.8686 12.7597 28.6809 12.9475L25.6212 16.007ZM37.4997 15.8662H25.9612V16.8278H37.4997V15.8662Z" fill="#292725"/>
<path d="M10.5762 15.8653L14.9031 12.5L16.3454 12.9808L20.1916 18.7499L18.2685 23.0768L22.5954 28.3654L26.9223 31.7307L31.2493 29.8076L35.0954 32.2114L37.98 35.0961L34.1339 39.423H31.2493L27.8839 37.9807L22.5954 34.6154L16.8262 28.3654L13.4608 24.0385L10.5762 18.75V15.8653Z" fill="#9F8260"/>
<path d="M10.5756 15.8662C8.17175 21.6354 26.441 41.8278 34.1333 39.4239L37.4987 35.5778C38.0081 34.981 37.907 34.611 37.0179 33.6547L32.2102 30.2893C31.4366 29.8508 30.9292 29.7851 29.8064 30.2893L26.9218 31.7316C23.1672 28.8567 21.2665 26.9457 18.2679 23.0777" stroke="#292725" stroke-linecap="round" stroke-linejoin="round"/>
<path d="M18.2685 23.077L19.7108 20.1924C20.3199 19.2031 20.2235 18.5794 19.23 17.3078L16.3454 12.9809C15.575 11.9033 13.9416 12.9809 13.9416 12.9809C13.9416 12.9809 11.791 14.6397 10.5762 15.8652" stroke="#292725" stroke-linecap="round" stroke-linejoin="round"/>
</svg>
