<svg width="50" height="50" viewBox="0 0 50 50" fill="none" xmlns="http://www.w3.org/2000/svg">
<g clip-path="url(#clip0_135_2514)">
<path d="M24.9994 49.0379C38.2755 49.0379 49.0379 38.2755 49.0379 24.9994C49.0379 11.7233 38.2755 0.960938 24.9994 0.960938C11.7233 0.960938 0.960938 11.7233 0.960938 24.9994C0.960938 38.2755 11.7233 49.0379 24.9994 49.0379Z" stroke="#292725"/>
<path d="M20.1908 15.3849L14.9023 9.13477H27.4023L20.1908 15.3849Z" fill="#9F8260"/>
<path d="M34.9157 18.8514L27.3438 18.4942L34.8001 10.0898L34.9157 18.8514Z" fill="#9F8260"/>
<path d="M34.6139 9.13477H15.3831C15.1176 9.13477 14.9023 9.35001 14.9023 9.61553V18.2694C14.9023 18.5349 15.1176 18.7502 15.3831 18.7502H34.6139C34.8794 18.7502 35.0947 18.5349 35.0947 18.2694V9.61553C35.0947 9.35001 34.8794 9.13477 34.6139 9.13477Z" stroke="#292725"/>
<path d="M14.8633 9.24414L22.736 18.6068" stroke="#292725" stroke-width="1.2"/>
<path d="M27.4531 18.8472L35.1454 10.1934" stroke="#292725" stroke-width="1.2"/>
<path d="M19.8203 15.9064L27.7598 9.17578" stroke="#292725" stroke-width="1.2"/>
<path d="M12.0174 27.4023H38.6944L40.3828 28.8447L41.3444 30.287V32.21L39.902 33.6523L38.9405 35.5754L38.4597 37.4985L13.9405 37.9793L12.0174 37.4985L11.0559 34.6139L9.13281 32.21V29.3254L12.0174 27.4023Z" fill="#9F8260"/>
<path d="M11.9426 26.3186C11.7274 24.5968 13.0699 23.0762 14.8049 23.0762H35.8262C37.3181 23.0762 38.5639 24.2139 38.6989 25.6996L38.8189 27.0191C38.8964 27.8717 38.5912 28.7146 37.9858 29.32L37.3927 29.9131C37.147 30.1588 36.968 30.463 36.8725 30.797L36.6125 31.7072C36.3444 32.646 35.2186 33.0246 34.4376 32.4389C34.2385 32.2895 34.003 32.1963 33.7557 32.1688L25.7231 31.2763C25.5611 31.2583 25.3978 31.2541 25.2351 31.2637L17.6874 31.7076C17.4346 31.7225 17.1848 31.7706 16.9446 31.8507L15.9369 32.1866C15.8886 32.2027 15.8414 32.2222 15.7957 32.245C15.2918 32.497 14.6789 32.3185 14.3891 31.8354L12.4292 28.569C12.1602 28.1207 12.0181 27.6077 12.0181 27.0848V26.9223L11.9426 26.3186Z" fill="#9F8260"/>
<path d="M38.9429 28.3652C37.5131 28.6868 36.9066 29.7646 36.0583 32.6922C27.7213 30.4745 22.9816 30.6159 14.4237 32.6922C13.8856 29.9565 13.3046 28.9139 11.5391 28.3652" stroke="#292725" stroke-linecap="round" stroke-linejoin="round"/>
<path d="M11.5379 26.9223V28.3646C8.6533 28.3646 7.38296 31.6348 10.5764 33.6531C11.1916 36.791 11.8283 37.7592 13.461 37.98H37.0187C38.2762 37.9146 38.9118 36.9436 39.9033 33.6531C42.7879 31.73 41.9269 28.553 38.9418 28.3646V26.9223C38.6154 24.1379 37.8525 23.1864 35.0956 23.0762H15.3841C12.3569 23.4383 11.6519 24.3829 11.5379 26.9223Z" stroke="#292725" stroke-linejoin="round"/>
<path d="M15.0111 39.6783C14.679 40.6871 13.7965 41.3031 13.0398 41.0541C12.2832 40.805 11.939 39.7853 12.271 38.7765C12.4999 37.3636 13.6663 38.076 14.4229 38.325C14.9037 37.8437 15.3431 38.6695 15.0111 39.6783Z" fill="#292725"/>
<path d="M35.44 39.6793C35.7721 40.6881 36.6555 41.3038 37.4131 41.0544C38.1707 40.8051 38.5156 39.7851 38.1836 38.7762C37.9549 37.3632 36.7869 38.0763 36.0293 38.3256C35.5481 37.8444 35.1079 38.6705 35.44 39.6793Z" fill="#292725"/>
</g>
<defs>
<clipPath id="clip0_135_2514">
<rect width="50" height="50" fill="white"/>
</clipPath>
</defs>
</svg>
