<svg width="50" height="50" viewBox="0 0 50 50" fill="none" xmlns="http://www.w3.org/2000/svg">
<g clip-path="url(#clip0_135_2438)">
<path d="M16.345 18.7506L19.2296 17.7891H24.518H30.768L34.1334 18.7506L35.5757 20.6737L36.0565 22.8095V27.4044H26.4411V24.0391L23.5565 22.5968L20.6719 24.0391L20.1911 25.4814V26.9237L19.7103 27.4044H14.4219V23.5583L14.9026 20.6737L16.345 18.7506Z" fill="#9F8260"/>
<path d="M29.8069 27.8848H36.0569V38.4617L35.5762 40.3848L33.6531 40.8655H23.5569V37.9809L25.48 37.5001L25.9608 36.0578L23.0762 34.6155L24.0377 33.1732V29.3271L26.9223 27.8848H29.8069L29.989 30.3797L28.3646 31.2502L27.8839 32.2117L28.8454 34.6155L31.2492 35.0963L32.6916 33.654L32.2108 31.2502L29.989 30.3797L29.8069 27.8848Z" fill="#9F8260"/>
<path d="M14.4219 27.8828H20.6719L22.1142 29.3251L24.518 29.8059V33.652L23.0757 36.5367L24.0373 37.979V40.8636H19.7103L15.3834 40.3828L14.4219 38.9405V27.8828Z" fill="#9F8260"/>
<path d="M14.5273 27.5742H20.3903" stroke="#292725"/>
<path d="M19.7103 17.7891H30.8423C33.763 17.7891 36.1307 20.1568 36.1307 23.0775V38.4621C36.1307 39.7897 35.0545 40.866 33.7269 40.866H16.8257C15.4981 40.866 14.4219 39.7897 14.4219 38.4621V23.0775C14.4219 20.1568 16.7896 17.7891 19.7103 17.7891Z" stroke="#292725" stroke-linejoin="round"/>
<path d="M23.3225 29.5297C25.2156 29.5297 26.7504 27.9949 26.7504 26.1017C26.7504 24.2086 25.2156 22.6738 23.3225 22.6738C21.4293 22.6738 19.8945 24.2086 19.8945 26.1017C19.8945 27.9949 21.4293 29.5297 23.3225 29.5297Z" stroke="#292725"/>
<path d="M26.2539 27.5742H36.0256" stroke="#292725"/>
<path d="M30.2886 35.0948C31.6162 35.0948 32.6925 34.0186 32.6925 32.691C32.6925 31.3633 31.6162 30.2871 30.2886 30.2871C28.961 30.2871 27.8848 31.3633 27.8848 32.691C27.8848 34.0186 28.961 35.0948 30.2886 35.0948Z" stroke="#292725"/>
<path d="M24.5185 37.9803C25.315 37.9803 25.9608 37.3346 25.9608 36.538C25.9608 35.7414 25.315 35.0957 24.5185 35.0957C23.7219 35.0957 23.0762 35.7414 23.0762 36.538C23.0762 37.3346 23.7219 37.9803 24.5185 37.9803Z" stroke="#292725"/>
<path d="M28.3639 13.9414H21.6331C21.3676 13.9414 21.1523 14.1567 21.1523 14.4222V17.3068C21.1523 17.5723 21.3676 17.7876 21.6331 17.7876H28.3639C28.6294 17.7876 28.8447 17.5723 28.8447 17.3068V14.4222C28.8447 14.1567 28.6294 13.9414 28.3639 13.9414Z" stroke="#292725" stroke-linejoin="round"/>
<path d="M27.8845 10.0957H22.1152V13.9419H27.8845V10.0957Z" stroke="#292725"/>
<path d="M22.1152 10.0957H29.8075" stroke="#292725" stroke-linecap="round"/>
<path d="M21.9234 10.1926C21.9234 10.1926 20.0003 8.26953 17.5965 8.26953C15.1926 8.26953 13.2695 10.1926 13.2695 10.1926" stroke="#292725" stroke-linecap="round"/>
<path d="M24.9994 49.0379C38.2755 49.0379 49.0379 38.2755 49.0379 24.9994C49.0379 11.7233 38.2755 0.960938 24.9994 0.960938C11.7233 0.960938 0.960938 11.7233 0.960938 24.9994C0.960938 38.2755 11.7233 49.0379 24.9994 49.0379Z" stroke="#292725"/>
</g>
<defs>
<clipPath id="clip0_135_2438">
<rect width="50" height="50" fill="white"/>
</clipPath>
</defs>
</svg>
