<svg width="50" height="50" viewBox="0 0 50 50" fill="none" xmlns="http://www.w3.org/2000/svg">
<g clip-path="url(#clip0_135_2472)">
<path d="M24.9994 49.0388C38.2755 49.0388 49.0379 38.2765 49.0379 25.0004C49.0379 11.7243 38.2755 0.961914 24.9994 0.961914C11.7233 0.961914 0.960938 11.7243 0.960938 25.0004C0.960938 38.2765 11.7233 49.0388 24.9994 49.0388Z" stroke="#292725"/>
<path d="M18.2695 10.0963C18.2695 9.56527 18.7 9.13477 19.2311 9.13477H30.7695C31.3006 9.13477 31.7311 9.56527 31.7311 10.0963V17.7886C31.7311 18.3197 31.3006 18.7502 30.7695 18.7502H28.8465H27.0368C26.6727 18.7502 26.3397 18.9559 26.1768 19.2817L25.8603 19.9147C25.506 20.6234 24.4946 20.6234 24.1403 19.9147L23.8238 19.2817C23.6609 18.9559 23.3279 18.7502 22.9638 18.7502H22.1157H19.2311C18.7 18.7502 18.2695 18.3197 18.2695 17.7886V10.0963Z" fill="#9F8260"/>
<path d="M18.7503 9.13477H31.2503C31.5158 9.13477 31.7311 9.35002 31.7311 9.61553V18.2694C31.7311 18.5349 31.5158 18.7502 31.2503 18.7502H28.6061H27.3361C26.8389 18.7502 26.3766 19.0063 26.1131 19.428L25.408 20.5561C25.2197 20.8574 24.7809 20.8574 24.5926 20.5561L23.8876 19.428C23.624 19.0063 23.1617 18.7502 22.6645 18.7502H21.3945H18.7503C18.4848 18.7502 18.2695 18.5349 18.2695 18.2694V9.61553C18.2695 9.35002 18.4848 9.13477 18.7503 9.13477Z" stroke="#292725" stroke-linejoin="round"/>
<path d="M14.4223 24.9999L16.3454 23.5576L19.23 24.0384L20.1916 25.4807V27.4038L20.6723 28.8461L19.7108 30.2884L18.7492 32.2115V33.6538L20.6723 34.6153L22.5954 35.5768L23.5569 36.5384L24.0377 37.9807H19.23H12.98H10.5762V36.5384L11.5377 35.5768L12.98 34.6153L15.3839 33.6538V32.2115L14.4223 30.2884L13.4608 28.8461L13.9416 27.4038L14.4223 24.9999Z" fill="#9F8260"/>
<path d="M29.8071 24.5197L32.6917 23.0774L34.6148 24.0389L35.5763 25.4812V26.9235L36.0571 28.3659L35.5763 29.8082L34.134 31.7312V33.6543L36.5379 34.6159L38.4609 35.5774L38.9417 36.5389L39.4225 37.9812H35.0956H28.8456H25.9609L26.4417 36.0582L27.4032 35.0966L28.8456 34.6159L30.7686 33.6543V31.7312L29.8071 30.2889L28.8456 28.8466L29.3263 26.9235L29.8071 24.5197Z" fill="#9F8260"/>
<path d="M10.5789 37.9812C10.5106 36.219 11.7201 35.1587 15.3866 33.6543V32.212L14.425 30.2889L13.4608 29.3274L13.4635 28.3659L13.9443 27.4043C13.7858 26.2542 13.7812 26.652 13.9443 25.4812C14.127 24.5064 14.6824 24.1147 16.3481 23.5582L17.7877 23.0774L17.7904 23.5582C19.2359 23.927 19.7455 24.472 20.1943 25.962C20.1943 25.962 20.1943 26.4428 20.1943 26.9235C20.1943 27.4043 20.1943 27.4043 20.1943 27.4043L20.675 28.3659L20.6723 29.3274L19.7135 30.2889L18.752 32.212V33.6543C23.1775 35.478 24.3926 36.4605 24.0404 37.9812" stroke="#292725" stroke-linecap="round" stroke-linejoin="round"/>
<path d="M25.9637 37.9812C25.8954 36.219 27.1049 35.1587 30.7713 33.6543V32.212L29.8098 30.2889L28.8456 29.3274L28.8483 28.3659L29.329 27.4043C29.1706 26.2542 29.166 26.652 29.329 25.4812C29.5117 24.5064 30.0672 24.1147 31.7329 23.5582L33.1725 23.0774L33.1752 23.5582C34.6207 23.927 35.1303 24.472 35.579 25.962C35.579 25.962 35.579 26.4428 35.579 26.9235C35.579 27.4043 35.579 27.4043 35.579 27.4043L36.0598 28.3659L36.0571 29.3274L35.0983 30.2889L34.1367 32.212V33.6543C38.5623 35.478 39.7774 36.4605 39.4252 37.9812" stroke="#292725" stroke-linecap="round" stroke-linejoin="round"/>
<path d="M10.6719 37.9805H39.4219" stroke="#292725" stroke-linecap="round"/>
</g>
<defs>
<clipPath id="clip0_135_2472">
<rect width="50" height="50" fill="white"/>
</clipPath>
</defs>
</svg>
